<svg xmlns="http://www.w3.org/2000/svg" viewBox="0 0 801.2 522.4"><defs><style>      .cls-1 {        fill: #fff;      }    </style></defs><g><g id="Livello_1"><g id="Livello_1-2" data-name="Livello_1"><g id="Livello_1-2"><g><polygon class="cls-1" points="761.4 227.5 296.4 82.6 296.4 14.3 761.2 211.8 761.4 227.5"></polygon><polygon class="cls-1" points="761.6 296.6 296.5 259.1 296.4 197.8 761.6 281.1 761.6 296.6"></polygon><polygon class="cls-1" points="761.6 322.5 296.5 321.6 296.3 277.2 761.6 313.8 761.6 322.5"></polygon><polygon class="cls-1" points="210.2 109.9 279.4 82.3 279.4 14.3 210.3 49.1 210.2 109.9"></polygon><polygon class="cls-1" points="194.9 56.8 141.3 83.7 141.2 137.3 195 115.8 194.9 56.8"></polygon><polygon class="cls-1" points="125.1 91.9 85.8 111.6 85.5 159.4 125.2 143.5 125.1 91.9"></polygon><polygon class="cls-1" points="71.2 118.9 38.1 135.5 37.9 178.3 71.2 165.1 71.2 118.9"></polygon><polygon class="cls-1" points="210.2 190.8 279.4 176.5 279.4 111.9 210.1 135.2 210.2 190.8"></polygon><polygon class="cls-1" points="195 140.4 141.1 158.6 141.1 205.1 195 193.9 195 140.4"></polygon><polygon class="cls-1" points="125.2 163.9 85.4 177.4 85.5 216.6 125.2 208.4 125.2 163.9"></polygon><polygon class="cls-1" points="71.4 182.1 37.7 193.5 37.9 226.4 71.2 219.6 71.4 182.1"></polygon><polygon class="cls-1" points="210.1 265.6 279.4 259.1 279.4 197.8 210.1 210.6 210.1 265.6"></polygon><polygon class="cls-1" points="195 213.3 141.1 223.2 141.1 272 195 267 195 213.3"></polygon><polygon class="cls-1" points="125.2 226.2 85.4 233.5 85.4 277.4 125.2 273.5 125.2 226.2"></polygon><polygon class="cls-1" points="71.3 236.1 37.9 242.2 37.9 281.8 71.2 278.7 71.3 236.1"></polygon><polygon class="cls-1" points="210.1 320.6 279.4 321.9 279.4 277.2 210.1 282.9 210.1 320.6"></polygon><polygon class="cls-1" points="195 284.2 141.1 288.7 141.1 319.4 195 320.4 195 284.2"></polygon><polygon class="cls-1" points="125.1 290 85.5 293.2 85.5 318.3 125.1 319.1 125.1 290"></polygon><polygon class="cls-1" points="71.2 294.4 38 297.2 37.9 317.4 71.2 318.1 71.2 294.4"></polygon><polygon class="cls-1" points="761.6 260.2 296.5 176.7 296.5 112 761.7 245.9 761.6 260.2"></polygon></g><g><path class="cls-1" d="M31.9,394.4c-3-.8-7.5-1.2-13.2-1.2H1.7v56.6h10.1v-21.3h13.7l3.5-.3,1.8-.4,1.7-.6c2.3-.8,4.2-2.2,5.6-4.1h.1s.6-1.1.6-1.1c1.3-2.4,1.9-5.9,1.9-11s-.5-8.5-1.7-10.9c-1.4-2.9-3.8-4.8-7.2-5.7ZM29.8,404.4h0c0,.1.2.4.3.7.1.5.5,1.9.5,5.7,0,5-.8,6.3-.9,6.5h0c0,0,0,.1,0,.1-.5.3-1.9.7-4.2.7h-13.4v-14.7h13.3c1.9,0,3.5.3,4.6.9Z"></path><path class="cls-1" d="M118.9,401.9c-.7-2.1-1.7-3.7-3.1-4.9-1.1-1.1-2.5-2-4.3-2.6-1.4-.5-3.2-.8-5.5-1-2.2-.2-4.3-.3-6.5-.3s-4.5.1-6.6.3c-2.4.2-4.1.6-5.6,1.1h0s0,0,0,0c-1.7.8-3,1.6-4.1,2.5-1.4,1.2-2.4,3-3.1,5-.5,1.5-1.1,3.9-1.1,7.1v24.7s0,.1,0,.1c.2,3,.6,5.2,1.1,6.9.6,2,1.7,3.8,3,4.9,1.3,1.3,2.8,2.2,4.5,2.7,1.3.5,3.1.8,5.4,1,2.3.2,4.4.3,6.6.3s4.3-.1,6.5-.3c2.3-.2,4.1-.6,5.6-1.1h.1c1.9-.9,3.2-1.6,4.2-2.6,1.4-1.4,2.4-3,3-4.9.7-2,1-4.5,1-7.1v-25c-.1-3-.5-5.3-1-7ZM89.9,438c-.1-.4-.5-1.4-.6-3.8v-25.3c.2-2.5.5-3.6.7-4.1,0,0,.2-.1.4-.2.4-.2,1.5-.5,3.1-.8,1.6-.3,3.3-.5,6.1-.5s4.9.2,6.5.5c2,.4,2.9.9,3,1,0,0,.2.1.2.1.2.4.4,1.4.6,3.6v25.7c-.2,2-.5,3.1-.7,3.7,0,0-.2,0-.2.1-.3.2-1.1.5-3,.9-1.5.3-3.9.5-6.5.5s-4.3-.2-6-.5c-1.5-.3-2.5-.6-3-.8-.2-.1-.5-.3-.5-.3Z"></path><polygon class="cls-1" points="187.7 427.2 181.6 416.3 173.9 416.3 167.8 427.2 167.8 393.3 157.9 393.3 157.9 449.9 166.2 449.9 168.7 446 177.7 430.1 186.8 446.2 189.3 449.9 197.6 449.9 197.6 393.3 187.7 393.3 187.7 427.2"></polygon><path class="cls-1" d="M246.9,394.4c-3.4.9-5.8,2.8-7.2,5.6-1.2,2.5-1.8,6.1-1.8,10.9v21.2c0,5.1.6,8.6,1.9,11,1.5,2.7,3.6,4.5,6.3,5.4l1.8.6,1.6.4,3.6.4h20.8s0-10.3,0-10.3h-20.3c-2.9-.3-4-.7-4.5-.9-.1-.2-1-1.4-1-6.6v-5.3h25.8v-10.6h-25.8v-5.3c0-4.9.8-6.3.9-6.6.8-.4,2.8-.6,3.8-.8h21.1v-10.3h-14c-5.8,0-10.2.4-13.1,1.2Z"></path><path class="cls-1" d="M351,422c1.3-2.4,1.9-5.8,1.9-11.1s-.7-9-2.1-11.5c-1.6-2.7-4-4.5-7.2-5.3-2.7-.6-6.8-.9-12-.9h-17.8v56.6h10.2v-21.3h11.1l9.7,21.3h11.2l-10.5-23c2.3-1,4.1-2.6,5.4-4.9ZM342.9,410.8c0,3.9-.4,5.2-.6,5.6-.3.7-.6,1-.6,1.1-.5.3-1.3.5-2.2.7h-15.5v-14.7h14c2.4.3,3.4.6,3.8.8.2.3.9,1.7.9,6.6Z"></path><rect class="cls-1" x="396.7" y="393.3" width="10.1" height="56.6"></rect><path class="cls-1" d="M488.9,425.7c-.7-2.1-1.7-3.7-2.9-4.8l-.6-.6c-1-1-2.4-1.8-4.1-2.4h-.1c-1-.3-2.8-.7-5.4-.9h-.8c-1.5-.2-2.3-.3-5.6-.3s-6-.3-7.7-.8c-1.1-.3-1.7-.6-2-.7-.3-.7-.6-1.9-.7-3.7v-2.2c.2-2.3.5-3.5.7-4.1.3-.1.8-.4,1.9-.7,1.5-.5,4.7-.8,7.7-.8s4.8.2,6.4.5c2,.4,2.9.9,3,1,.1,0,.2.1.3.2.2.4.5,1.5.7,3.6v4.1h10v-3.9c-.1-2.8-.5-5.2-1-7-.7-2.3-1.7-3.9-3.1-5-1.2-1-2.6-1.9-4.2-2.4-1.3-.5-3.1-.8-5.5-1-2.2-.2-4.3-.3-6.5-.3s-4.4.1-6.6.3c-2.4.2-4.1.6-5.6,1.1-1.5.6-2.9,1.4-4.2,2.5-1.4,1.2-2.4,3-3.1,5-.6,2.1-1,4.4-1.1,7.1v1.5s0,.1,0,.1c.2,3,.6,5.2,1.1,6.9.6,2,1.7,3.8,3,4.9,1.2,1.2,2.7,2.2,4.4,2.7,1.3.5,3.3.8,6.3,1.1,1.5.2,2.6.3,5.7.3s4.8.2,6.4.5c2.2.5,2.9.8,3,.9.1,0,.2.1.3.2.2.4.5,1.4.7,3.6v2.5c-.2,2.1-.5,3.3-.7,3.8-.1,0-.3.2-.5.3-.6.3-2.2.6-2.9.8-.4,0-1,.2-1.9.3h-.1c-.8.2-1.6.2-2.6.2h-1.6c-2.2,0-4.1-.1-6-.5-1.6-.3-2.6-.6-3.2-.8-.2,0-.4-.2-.6-.3-.2-.6-.6-1.7-.6-3.7v-1.4s.2-3.6.2-3.6h-10.1v4.8s0,.1,0,.1c.2,2.9.6,5,1.1,6.6.7,2.1,1.7,3.7,2.9,4.8,1.2,1.2,2.8,2.1,4.4,2.6,1.3.5,3.1.8,5.5,1.1,2.2.2,4.3.3,6.6.3h3c.5,0,1.1,0,1.8-.1h.8c.8,0,1.8-.2,2.9-.4h.8c.2-.2.4-.2.7-.3.4,0,.9-.2,1.5-.3h.3c0,0,2.6-1.1,2.6-1.1l.3-.3c.2-.1.3-.3.5-.4,0,0,0,0,.1-.1h0c.7-.5,1.2-1.1,1.7-1.7l.2-.2c.8-1,1.5-2.3,2-3.9.6-1.8.9-4,1-6.9v-1.6c-.1-2.8-.5-5.1-1-6.8Z"></path><path class="cls-1" d="M541.5,438.8c-1.2-.4-1.8-.6-2-.8h0c0-.3-.4-1.2-.6-3.7v-41.2h-10.2v40.7s0,.1,0,.1c.2,3.1.6,5.3,1.1,6.9.7,2.1,1.6,3.7,3,4.9,1.3,1.3,2.8,2.3,4.4,2.7,1.3.5,3.1.8,5.5,1.1,2.2.2,4.3.3,6.6.3h17.1v-10.2h-17.1c-4,0-6.4-.5-7.7-.9Z"></path><path class="cls-1" d="M639.5,399.8c-1.2-2.4-3.3-4.2-6.2-5.2-3-1.1-7.3-1.4-10.4-1.4s-7.6.5-10.2,1.4c-2.9,1.1-5,2.8-6.3,5.2-1.2,2.2-1.9,5.3-2.1,9.5v40.5h10.1v-22.7h17.1v22.7h10.1v-40.9c-.2-4.3-.9-7.2-2-9.2ZM622.8,403.5c6.7,0,7.7,1.1,7.7,1.1h0c0,.1,0,.2,0,.2,0,0,.7,1,.7,3.7v8.2h-17.1v-7.8c.2-3,.7-4,.8-4.2,0,0,1.1-1.2,7.7-1.2Z"></path><polygon class="cls-1" points="709.3 426 690.8 393.3 682.9 393.3 682.9 449.9 693 449.9 693 417.2 711.4 449.9 719.3 449.9 719.3 393.3 709.3 393.3 709.3 426"></polygon><path class="cls-1" d="M796.7,399.5c-1.6-2.7-4-4.5-7.2-5.3-2.2-.4-6-.9-12-.9h-17.8v56.6h23.7l3.7-.3,1.8-.5,1.4-.5c2.8-.9,5-2.7,6.5-5.4,1.3-2.5,2-6.2,2-11.1v-21.2c0-5.3-.7-8.9-2.1-11.4ZM787.4,438.7c-.2.2-1.2.6-4.1.7h-13.4v-35.9h14c2.8.2,3.6.7,3.7.8h.2c.1.3.6,1.2.8,3.7h0v24c0,3.9-.3,5.2-.5,5.6-.3.8-.6,1.1-.6,1.1,0,0,0,0,0,0Z"></path></g><g><path class="cls-1" d="M7.2,484v9.6h9.8v2.2H7.2v9.8h10.9v2.2H4.6v-25.8h13.5v2.2H7.2Z"></path><path class="cls-1" d="M51,507.8h-2.6l-14.4-21.8v21.8h-2.6v-25.8h2.6l14.4,21.7v-21.7h2.6v25.8Z"></path><path class="cls-1" d="M67.7,484v9.6h9.8v2.2h-9.8v9.8h10.9v2.2h-13.5v-25.8h13.5v2.2h-10.9,0Z"></path><path class="cls-1" d="M105.7,507.8l-6.4-10.8h-4.8v10.8h-2.6v-25.8h7.7c2.9,0,5,.7,6.5,2.1s2.3,3.2,2.3,5.4-.5,3.5-1.6,4.8-2.7,2.2-4.8,2.6l6.6,11h-3.1ZM94.7,494.9h5.2c2,0,3.6-.5,4.6-1.5s1.5-2.3,1.5-4-.5-3-1.5-4-2.6-1.4-4.7-1.4h-5.1s0,10.8,0,10.8Z"></path><path class="cls-1" d="M142.4,489.4c-.7-1.7-1.9-3.1-3.4-4.1s-3.3-1.5-5.3-1.5-3.7.4-5.1,1.3-2.8,2.2-3.7,3.8-1.3,3.6-1.3,5.7.4,4.1,1.3,5.7,2.1,2.9,3.7,3.8,3.3,1.3,5.1,1.3,3.5-.4,4.9-1.2c1.5-.8,2.6-1.9,3.5-3.4s1.4-3.2,1.5-5h-10.9v-2.1h13.6v1.9c0,2.3-.7,4.4-1.9,6.1-1.1,1.9-2.6,3.3-4.5,4.4s-4,1.6-6.2,1.6-4.6-.6-6.5-1.7-3.5-2.7-4.6-4.7-1.7-4.3-1.7-6.8.6-4.9,1.7-6.8,2.7-3.6,4.6-4.7c2-1.1,4.2-1.7,6.5-1.7s5.1.7,7.2,2.1,3.6,3.3,4.6,5.7h-3.1v.2h0Z"></path><path class="cls-1" d="M161.8,481.9v25.8h-2.6v-25.8h2.6Z"></path><path class="cls-1" d="M190.9,501.6h-11.8l-2.3,6.1h-2.8l9.4-25.5h2.9l9.4,25.5h-2.8l-2.3-6.1h.2ZM190.1,499.5l-5.1-14-5.1,14h10.3Z"></path><path class="cls-1" d="M240.5,507.8l-6.4-10.8h-4.8v10.8h-2.6v-25.8h7.7c2.9,0,5,.7,6.5,2.1s2.3,3.2,2.3,5.4-.5,3.5-1.6,4.8-2.7,2.2-4.8,2.6l6.6,11h-3.1,0ZM229.3,494.9h5.2c2,0,3.6-.5,4.6-1.5s1.5-2.3,1.5-4-.5-3-1.5-4-2.6-1.4-4.7-1.4h-5.1v10.8h0Z"></path><path class="cls-1" d="M259.3,481.9v25.8h-2.6v-25.8h2.6Z"></path><path class="cls-1" d="M293,507.8h-2.6l-14.4-21.8v21.8h-2.6v-25.8h2.6l14.4,21.7v-21.7h2.6v25.8Z"></path><path class="cls-1" d="M326.6,507.8h-2.6l-14.4-21.8v21.8h-2.6v-25.8h2.6l14.4,21.7v-21.7h2.6v25.8Z"></path><path class="cls-1" d="M345.8,506.4c-2-1.1-3.5-2.7-4.6-4.7s-1.7-4.3-1.7-6.8.6-4.9,1.7-6.8,2.7-3.6,4.6-4.7c2-1.1,4.2-1.7,6.5-1.7s4.6.6,6.5,1.7,3.5,2.7,4.6,4.7,1.7,4.3,1.7,6.8-.6,4.9-1.7,6.8-2.7,3.6-4.6,4.7c-2,1.1-4.2,1.7-6.5,1.7s-4.6-.6-6.5-1.7ZM357.5,504.5c1.5-.9,2.8-2.2,3.7-3.9.9-1.7,1.3-3.6,1.3-5.7s-.4-4.2-1.3-5.7c-.9-1.7-2.1-3-3.7-3.8-1.5-.9-3.3-1.3-5.1-1.3s-3.7.4-5.1,1.3-2.8,2.2-3.7,3.8c-.9,1.7-1.3,3.6-1.3,5.7s.4,4.2,1.3,5.7c.9,1.7,2.1,3,3.7,3.9,1.5.9,3.3,1.3,5.1,1.3s3.7-.4,5.1-1.3Z"></path><path class="cls-1" d="M398.6,481.9l-9.8,25.8h-3l-9.8-25.8h2.8l8.4,23.1,8.5-23.1h2.9Z"></path><path class="cls-1" d="M425.7,501.6h-11.8l-2.3,6.1h-2.8l9.4-25.5h3l9.4,25.5h-2.8l-2.3-6.1h0ZM425,499.5l-5.1-14-5.1,14h10.3Z"></path><path class="cls-1" d="M459,496.7c1,1.2,1.5,2.6,1.5,4.3s-.3,2.5-1,3.6-1.6,1.9-2.9,2.5-2.8.9-4.6.9h-8.9v-25.8h8.7c2.6,0,4.6.6,5.9,1.8,1.4,1.2,2.1,2.8,2.1,4.7s-.4,2.9-1.3,3.9-2,1.7-3.4,2.1c1.5.3,2.7,1,3.7,2.2h0ZM445.7,493.4h6c1.8,0,3.1-.4,4.1-1.3,1-.8,1.4-2,1.4-3.5s-.5-2.6-1.4-3.4c-1-.8-2.4-1.2-4.2-1.2h-5.9v9.2h0ZM456.3,504.3c1.1-.9,1.6-2.1,1.6-3.7s-.6-2.8-1.7-3.8c-1.1-.9-2.6-1.4-4.5-1.4h-6v10.1h6.1c1.9,0,3.4-.4,4.4-1.3h0Z"></path><path class="cls-1" d="M476.1,481.9v25.8h-2.6v-25.8h2.6Z"></path><path class="cls-1" d="M492.8,505.7h9.3v2.1h-11.9v-25.8h2.6v23.8Z"></path><path class="cls-1" d="M516.7,484v9.6h9.8v2.2h-9.8v9.8h10.9v2.2h-13.5v-25.8h13.5v2.2h-10.9Z"></path><path class="cls-1" d="M559.9,488.1c1.1-2,2.7-3.6,4.6-4.7,1.9-1.1,4.1-1.7,6.4-1.7s5.3.7,7.4,2.1,3.6,3.3,4.5,5.7h-3.1c-.7-1.8-1.9-3.1-3.4-4.1s-3.4-1.5-5.4-1.5-3.6.4-5.1,1.3-2.7,2.2-3.6,3.9-1.3,3.6-1.3,5.7.4,4.2,1.3,5.7c.9,1.7,2.1,3,3.6,3.8s3.3,1.3,5.1,1.3,4-.5,5.4-1.5,2.7-2.3,3.4-4.1h3.1c-.9,2.5-2.5,4.4-4.6,5.7s-4.6,2.1-7.4,2.1-4.6-.6-6.4-1.7-3.5-2.7-4.6-4.7-1.7-4.3-1.7-6.8.6-4.9,1.7-6.8h0Z"></path><path class="cls-1" d="M601.2,506.4c-2-1.1-3.5-2.7-4.6-4.7s-1.7-4.3-1.7-6.8.6-4.9,1.7-6.8,2.7-3.6,4.6-4.7c2-1.1,4.2-1.7,6.5-1.7s4.6.6,6.5,1.7,3.5,2.7,4.6,4.7,1.7,4.3,1.7,6.8-.6,4.9-1.7,6.8c-1.1,2-2.7,3.6-4.6,4.7-2,1.1-4.2,1.7-6.5,1.7s-4.6-.6-6.5-1.7ZM612.9,504.5c1.5-.9,2.8-2.2,3.7-3.9.9-1.7,1.3-3.6,1.3-5.7s-.4-4.2-1.3-5.7c-.9-1.7-2.1-3-3.7-3.8-1.5-.9-3.3-1.3-5.1-1.3s-3.7.4-5.1,1.3-2.8,2.2-3.7,3.8c-.9,1.7-1.3,3.6-1.3,5.7s.5,4.2,1.3,5.7c.9,1.7,2.1,3,3.7,3.9,1.5.9,3.3,1.3,5.1,1.3s3.7-.4,5.1-1.3Z"></path><path class="cls-1" d="M653,507.8h-2.6l-14.4-21.8v21.8h-2.6v-25.8h2.6l14.4,21.7v-21.7h2.6v25.8Z"></path><path class="cls-1" d="M682.3,481.9v2.2h-7.1v23.7h-2.6v-23.7h-7.2v-2.2h16.9Z"></path><path class="cls-1" d="M697.3,481.9v25.8h-2.6v-25.8h2.6Z"></path><path class="cls-1" d="M730.9,507.8h-2.6l-14.4-21.8v21.8h-2.6v-25.8h2.6l14.4,21.7v-21.7h2.6v25.8Z"></path><path class="cls-1" d="M747.6,481.9v16.2c0,2.6.6,4.5,1.8,5.6s2.9,1.9,5,1.9,3.8-.6,4.9-1.8c1.2-1.2,1.8-3.2,1.8-5.7v-16.2h2.6v16.2c0,3.3-.9,5.7-2.6,7.4-1.8,1.7-4,2.5-6.8,2.5s-5-.8-6.8-2.5c-1.8-1.7-2.6-4.2-2.6-7.4v-16.2h2.7Z"></path><path class="cls-1" d="M792.8,501.6h-11.8l-2.3,6.1h-2.8l9.4-25.5h3l9.4,25.5h-2.8l-2.3-6.1h0ZM792,499.5l-5.1-14-5.1,14h10.3Z"></path></g></g></g></g></g></svg>