<svg xmlns="http://www.w3.org/2000/svg" viewBox="0 0 595.3 841.9"><defs><style>      .cls-1 {        fill: #2a363c;        stroke: #2a363c;        stroke-miterlimit: 10;      }    </style></defs><g><g id="Livello_1"><g><path class="cls-1" d="M162.4,480.1c-.4-.4-.6-.8-.9-1-5.6-5.3-10.1-11.4-13.6-18.1-3.7-7.1-6.2-14.6-7.1-22.6-.5-4.6-.5-9.2.3-13.8.1-.7.2-1.3.2-2.1-.4-.9-.9-1.9-1.4-2.9-1.3-2.8-2.5-5.7-3.4-8.7-.7-2.4-1.1-4.7-1.1-7.2,0-5.6,2.8-9.5,7.6-12.1,2.7-1.4,5.6-2.1,8.6-2.1,2.8,0,5.7,0,8.5,0,.6,0,1.2.1,1.8-.2.4-.8.2-1.7.3-2.6,0-9.3,0-18.6,0-27.9,0-20.3,0-40.5,0-60.8,0-1,0-2,0-3-.3-.5-.6-1-.9-1.4-2.7-3.7-4-7.8-4-12.3,0-11.5,0-23.1,0-34.6,0-13,0-26,0-39.1,0-1.2,0-2.3,0-3.5.2-2.5,1.1-4.7,2.9-6.6.6-.6,1.2-1.1,1.8-1.7,0-.9,0-1.8,0-2.6,0-8.5,0-17.1,0-25.6,0-1.2,0-2.4.6-3.5-.2-.8-.5-1.5-.6-2.2,0-.7,0-1.4,0-2,0-3,0-6.1,0-9,.5-1.1,1.4-1.7,2.3-2.2,5.1-3.3,10.1-6.6,15.2-9.8,9.7-6.3,19.5-12.6,29.2-18.9.5-.3.9-.6,1.3-.8,1.2-.4,2.1,0,3.1.3,7.7,2.5,15.5,4.9,23.2,7.4,20.3,6.5,40.7,12.9,61,19.4,36,11.4,72,22.9,108.1,34.3.6.2,1.2.4,1.7.6,1.2.4,1.7,1.3,1.9,2.4,0,.3,0,.7,0,1,0,2.9,0,5.8,0,8.7,0,1-.2,1.9-.7,2.7.7,1.2.6,2.5.6,3.8,0,25.1,0,50.2,0,75.3,0,83.2,0,166.4,0,249.6,0,30.4,0,60.9,0,91.3,0,37.1,0,74.2,0,111.3,0,.9,0,1.8,0,2.5-.4.7-.8,1.2-1,1.7-.5,1.2-1.3,2-2.4,2.7-6,3.9-11.9,7.7-17.9,11.6-8,5.2-16,10.4-24.1,15.6-.7.5-1.5.9-2.2,1.4-1.8.3-3.4-.1-5-.7-33.5-10.7-67-21.3-100.5-32-30-9.5-60-19.1-90-28.6-.6-.2-1.3-.4-2-.7-.5-.6-1.1-1.3-1.7-2.1v-218.7ZM200.5,412.6c.3,0,.5-.2.3-.8-.1.4-.2.6-.2.8,0,0,0,0,0,.1,0,0,0-.1,0-.2ZM314.4,448.8c.2-.1.3-.2.7-.5-.6,0-.6.3-.7.5,0,0,0,0,0,.1,0,0,0-.1,0-.2ZM310.9,443.3c.7-.7,1.5-1.3,2.2-2,.2-.2.3-.4-.1-.7-1,.6-1.7,1.5-2.3,2.5-.2.2-.5.4-.2.8.2-.2.3-.4.5-.6ZM197,407.1q2-1.7,2.3-2.6c-1.2.5-1.3.6-2.5,2.4-.2.2-.5.4-.2.9.2-.3.3-.5.5-.7ZM248.9,453.8c0-.2,0-.3,0,0-.1-.2,0,0,0,0,0,.6.1,1.2.3,1.8,1.4,5.2,2.8,10.5,4.2,15.7.1.5.2,1.1.8,1.6.3-1,0-1.8-.1-2.6-1.4-4.9-2.9-9.7-4.3-14.6-.2-.6-.6-1.2-.9-1.8ZM362.8,490c0-.2,0-.3,0-.1-.1-.2,0,0,0,0,.1.8.2,1.6.4,2.4,1.5,5.7,3.1,11.4,4.6,17.1.4,1.3.7,2.6,1.1,3.9,0,.3.2.7.7.6.5-.4.2-.9.1-1.3-2-7.1-4.1-14.2-6.2-21.3-.1-.5-.5-.9-.8-1.4ZM305.2,442.1c.5-.5.9-1,1.4-1.5.9-.9,1.7-1.9,2.8-2.5,1.2.1,1.2.1,1.6,1.2-.4.5-.8,1-1.2,1.6-1,1.6-2,3.2-3,4.8-.4.7-.6,1.5-.8,2.3,0,.2,0,.5.1.9.6-.2,1.1-.4,1.6-.6.3.2.6.4.8.7.2.2.4.6.6.8.3.8-.4,1.9.6,2.8.3-.6.5-1,.7-1.5,1.5-3.3,3.8-5.9,6.5-8.3.4-.4.9-.6,1.5-.5.6.1,1,.5,1,1.2-.3.4-.7.9-1.1,1.4-1.1,1.5-2.2,2.9-3.1,4.5-.9,1.4-1.5,3-2.2,4.6-.2.5-.3,1.2-.3,1.8,0,.6.3,1,1,1.1.9-1.7,1.6-3.4,2.6-5,1-1.6,2.2-3.1,3.4-4.5,1.2-1.4,2.7-2.6,4.1-4-.2-.2-.3-.4-.5-.5-.5-.3-1.1-.4-1.8-.3-1.1.2-1.8-.3-2.2-1.3,0-.2-.2-.3-.3-.5-.3-.1-.6-.3-.9-.3-1.4.1-2.4.8-3.2,1.8-1.3,1.5-2.6,3.1-3.9,4.7-.5.6-.9,1.4-1.8,1.6-.9-.3-1.4-.9-1.5-2.1.3-.5.6-1.2.9-1.9,1.1-1.9,2.6-3.5,4.2-4.9.3-.3.9-.5.7-1.2-.6-.1-1.2-.2-1.8-.3-.6-.4-1.2-.8-1.7-1.2-1.3.3-1.5.3-2.3,1-1.3,1.1-2.4,2.4-3,4-.2.2-.5.4,0,.7.1-.2.2-.4.3-.6ZM197.9,347.7c1.2,1.2,2.5,2.3,3.7,3.5.2.2.4.5.9.3,0-.7,0-1.5,0-2.3,0-8.6,0-17.2,0-25.8,0-3.3-.3-6.6-.9-9.9-.2-.9-.4-1.8-.6-2.7-1.2-.5-2.3-1.2-3.6-.9-.5,1.5-.8,3-.8,4.6,0,2.1,0,4.2,0,6.3,0,4.5-.8,9-1.4,13.5-.4,3.4-.9,6.8-1.3,10.3,0,.6-.2,1.2.2,1.7q2.5.2,3.7,1.5c-.4,0-.8-.1-1.2-.2-.9.5-1.8.9-2.5,1.8.8,1.4,2,2.3,3.3,3.1,1-.5,2-1,2.7-1.9-.4-.4-.7-.8-1.1-1.2-.5-.6-.9-1.1-1.4-1.7ZM359.2,761.5c.5-.9.3-1.7.4-2.5,0-4.3,0-8.5,0-12.8,0-20.5,0-41.1,0-61.6,0-18.4,0-36.9,0-55.3,0-23.8,0-47.6,0-71.4,0-5.6,0-11.1,0-16.7,0-.9.2-1.8-.4-2.7-.5,0-1,0-1.6-.1-.6,0-1.2-.2-1.8-.3-1-.2-1.7-.9-2-1.9-.1-.4-.2-.8-.3-1.2-.9-3.5-1.9-6.9-2.8-10.4-.2-.8-.5-1.6-.7-2.3-.5-.3-1-.5-1.5-.8-4.6,1.4-9.3,2.1-13.9,2.7-.8.6-1.5,1.2-2.2,1.7-6,4.3-12.8,6.2-20,6.3-2.8,0-5.7-.3-8.5-.9-5.1-1-9.9-2.9-14.4-5.3-6.2-3.3-11.6-7.7-16.4-12.8-5-5.3-9.1-11.1-12.2-17.6-.1-.3-.4-.5-.5-.7-1.2.9-2.3,1.8-3.5,2.6-.8.6-1.7,1.1-2.5,1.7-1.7,1.3-3.6,2.1-5.7,2.5-1.1.2-2.3.4-3.4.5-1.4.1-2.7,0-4-.5-.9-.5-1.3-1.3-1.5-2.3-.4-1.5-.8-3-1.2-4.5-.8-2.9-1.6-5.7-2.4-8.7-.5-.3-1-.6-1.5-.9-4.7,1.5-9.3,2.1-13.9,2.7-.5.4-.9.7-1.3,1-2.9,2.2-6.1,4-9.6,5.1-2.9.9-5.9,1.5-8.9,1.7-3.7.3-7.3,0-10.9-.7-6.5-1.3-12.5-3.9-18.1-7.5-2.5-1.6-5-3.3-7.2-5.3-.3-.3-.6-.6-1.1-.2,0,.3-.1.6-.1.9,0,71.9,0,143.9,0,215.8,0,.2.1.4.2.6.3.1.5.4.8.5,64.7,20.6,129.3,41.1,194,61.7.2,0,.4,0,.7,0ZM407.2,199c-.8.4-1.3.7-1.8,1-4.1,2.6-8.2,5.3-12.3,8-6.3,4.1-12.5,8.1-18.8,12.2-3.4,2.2-6.8,4.4-10.3,6.6-.8.5-1.6,1-2,2.3,0,.7,0,1.6,0,2.6,0,31.5,0,62.9,0,94.4,0,51.5,0,102.9,0,154.4,0,2.3,0,4.6,1.1,6.7.2.5.4,1,.5,1.5,2.4,8.1,4.7,16.1,7.1,24.2.1.4.2.9.2,1.3-.3.7-.7,1.3-1,1.9.2.6.3,1.3.5,2,1,3.9,2.1,7.7,3.1,11.6.1.5.2,1,.2,1.5-1,1.3-2.4,2-3.6,2.9-1.3.9-2.5,1.9-3.9,2.6-1.3.7-2.8,1-4.3,1.6,0,.9,0,1.8,0,2.7,0,20.9,0,41.8,0,62.6,0,51.4,0,102.8,0,154.2,0,.8,0,1.6,0,2.4,0,.3.1.6.2,1,.9,0,1.5-.5,2.1-.9,7.5-4.9,15-9.7,22.5-14.6,6.1-4,12.3-8,18.4-12,.7-.5,1.6-.8,2.1-1.9,0-176.9,0-354.1,0-531.3,0-.3,0-.7-.2-1.3ZM303.4,403.1c.2,0,.3,0,.4,0,3.2,1,6.5,1.9,9.7,3,1.6.5,2.5,1.8,2.5,3.6,0,.5,0,.9,0,1.4,0,6.4,0,12.9,0,19.3,0,2.2.3,4.5-.6,6.6,2.1,1.5,4.1,2.9,6.1,4.3.3.2.6.3.9.4,1.7.7,3.3,1.5,4.7,2.7,4.9,4,9.8,7.9,14.8,11.8.2.2.5.5,1,.2-.1-.4-.2-.8-.4-1.3-.6-1.4-1.2-2.7-1.8-4.1-4.4-10.3-9.3-20.3-14.1-30.4-2.9-6.1-5.7-12.3-8.5-18.4-1.1-2.4-1.8-5-1.5-7.7,0-.5,0-1.1,0-1.6,0-.2-.1-.3-.2-.7-.9.7-.8,1.9-1.6,3-1.2,1.1-2.9,2.1-4.5,3-.4,0-.7,0-1,0-2.9.4-5-.8-7.1-2.8-2.1-2-3.2-4.4-3.4-7.2-.1-2.6-.2-5.3,0-7.9.4-4.4,1.1-8.9,1.7-13.3.4-3,.8-6.1,1-9.1.2-4.3,0-8.7-.9-12.9-.2-.9-.4-1.8-.6-2.8-.7-.2-1.3-.5-2-.7-3.9-1.3-7.9-2.6-11.8-3.7-3.7-1.1-6.8-3-9.4-5.9-2.4-2.7-4.1-5.7-5.1-9.2-.5-1.9-.5-3.9-.5-5.9,0-22.4,0-44.9,0-67.3,0-2.8,0-5.6,0-8.3,0-4,2-7.1,5.3-9.3,1-.6,1.9-1.3,2.9-1.9,3.4-2.2,6.8-4.4,10.2-6.6,1.9-1.2,3.9-1.9,6.2-1.7,1.3.1,2.7.4,4,.8,12,3.8,23.9,7.6,35.8,11.4,5,1.6,8.6,4.8,11.3,9.1,2.3,3.5,3.1,7.5,3.1,11.6,0,23.9,0,47.7,0,71.6,0,1.2,0,2.4,0,3.7-.2,4.2-2,7.5-5.6,9.8-4.4,2.8-8.8,5.7-13.1,8.5-1.1.7-2.3,1.2-3.5,1.5-.4,0-.8.2-1.2.3-.1.3-.3.5-.4.8-.3,1.7-.7,3.5-.7,5.2,0,3.3,0,6.6,0,10,0,9.7,0,19.4,0,29.1,0,1.4.2,2.7.8,3.9,1.2,2.5,2.2,5.1,3.4,7.6,4.4,9.3,8.8,18.5,13.2,27.7,5.1,10.9,9.9,21.9,13.9,33.2.7,1.9,1.3,3.7,1.9,5.6,0,.3.2.5.7.4.3-.7.1-1.6.1-2.3,0-21.8,0-43.7,0-65.5,0-28.9,0-57.8,0-86.7,0-22.7,0-45.4,0-68.1,0-6.6,0-13.2,0-19.7,0-.8.1-1.6-.5-2.5-.7-.2-1.5-.6-2.3-.8-24.3-7.7-48.5-15.4-72.8-23.2-31.5-10-63-20-94.5-30-7.9-2.5-15.7-5-23.6-7.5-.7-.2-1.4-.6-2.2-.3-.4.7-.3,1.4-.3,2.2,0,7.9,0,15.9,0,23.8,0,.4,0,.8,0,1.2,0,.3,0,.7.4.9.7,0,1.2-.5,1.8-.9,3.4-2.2,6.8-4.4,10.2-6.6,2.6-1.7,5.4-2.2,8.3-1.4,1.4.4,2.9.8,4.3,1.3,11.1,3.5,22.2,7.1,33.3,10.6,1.9.6,3.7,1.3,5.3,2.5,6,4.5,9.2,10.2,9.2,17.9,0,20.9,0,41.8,0,62.7,0,4.3,0,8.5,0,12.8,0,4.2-1.8,7.5-5.3,9.8-4.5,2.9-9,5.8-13.5,8.8-1.1.7-2.4,1.2-3.8,1.4-.3,0-.6.2-1,.3-.1.5-.3.9-.4,1.3-.6,2.4-.6,4.8-.6,7.3,0,7.1,0,14.1,0,21.2,0,5.2,0,10.4,0,15.7,0,1.1.2,2.1.6,3.2,1.3,2.8,2.5,5.7,3.8,8.5,5.1,10.9,10.3,21.8,15.4,32.7,4.4,9.5,8.5,19.2,11.9,29.2,1.3,3.8,2.4,7.8,3.6,11.7.5,1.5.9,3,1.4,4.5.8,2.6,1.7,5.1,2.5,7.7.9,2.8,1.6,5.6,2.5,8.4.1.4.1.9.7,1,.4-1.3,1-5.6,1-7.3-.2-.4-.4-.8-.5-1.2-1.1-2.5-2.2-4.9-3.2-7.5-1.2-3.1-2-6.3-2-9.7,0-5.9,2.9-10,8.1-12.5,2.6-1.3,5.4-1.8,8.3-1.9,1.6,0,3.1,0,4.7,0,3.9-.1,7.7.4,11.5,1,5.9,1,11.7,2.3,17.5,3.8.6.2,1.2.2,1.7.3.5-.8.4-1.5.4-2.3,0-7.1,0-14.2,0-21.4,0-.8,0-1.6,0-2.2.4-1,1-1.6,1.8-1.9ZM361.3,211.6c.6-.4,1.4-.8,2.1-1.3,9.2-5.9,18.3-11.9,27.5-17.8,4.7-3.1,9.4-6.1,14.2-9.2.5-.4,1.2-.6,1.4-1.2,0-.1,0-.2-.1-.3,0,0,0-.1-.1-.1-.3-.1-.5-.2-.8-.3-64.5-20.5-129-41-193.6-61.5-.1,0-.3,0-.4,0,0,0-.1,0-.2,0,0,0-.1,0-.5,0-.6.3-1.3.8-2.1,1.2-12.1,7.8-24.2,15.7-36.3,23.6-2,1.3-4.1,2.7-6.1,4-.4.3-1,.5-1,1.3.9.3,1.9.7,2.8,1,26.8,8.5,53.7,17.1,80.5,25.6,31.6,10,63.1,20.1,94.7,30.1,5.1,1.6,10.2,3.3,15.3,4.9.8.2,1.5.6,2.7.2ZM334.4,300.6h0c0-12,0-24,0-36,0-1.4,0-2.9-.2-4.3-1.2-7.7-5.2-13.3-12.8-15.8-4-1.3-8.1-2.6-12.2-3.9-7.9-2.5-15.9-5-23.8-7.6-1.8-.6-3.5-.9-5.4-.7-3,.3-5.3,1.6-6.6,4.4-.5,1-.8,2.2-1,3.3-.2,1.4-.3,2.8-.3,4.3,0,24.1,0,48.1,0,72.2,0,1.5,0,3,.3,4.5,1.3,7.5,5.3,12.9,12.7,15.4,4.1,1.3,8.1,2.6,12.2,3.9,7.9,2.5,15.9,5,23.8,7.6,1.8.6,3.7.9,5.6.7,2.8-.3,5-1.6,6.3-4.2.6-1.1,1-2.3,1.1-3.5.1-1.5.3-3.1.3-4.7,0-11.9,0-23.7,0-35.6ZM158.3,244.7c0,11.7,0,23.3,0,35,0,1.4,0,2.7.2,4.1.5,7.6,5.6,14.1,12.9,16.4,2.8.9,5.5,1.8,8.3,2.7,9.3,2.9,18.6,5.9,27.9,8.9,1.7.5,3.4.8,5.2.7,2.9-.3,5.2-1.5,6.5-4.2.4-1,.8-2,1-3.1.2-1.4.3-2.8.3-4.2,0-7.3,0-14.5,0-21.8,0-17.3,0-34.6,0-51.8,0-2.9-.4-5.7-1.6-8.3-2.3-5.2-5.9-8.8-11.4-10.5-1.4-.4-2.8-.9-4.3-1.4-10.6-3.4-21.2-6.7-31.7-10.1-1.6-.5-3.1-.8-4.8-.8-3.6,0-6.6,1.9-7.8,6-.6,1.9-.6,3.9-.6,5.8,0,12.3,0,24.5,0,36.8ZM291.5,448c-.6-2-1.1-4-1.7-6-.1-.5-.4-1-.6-1.4-10.7-.6-21,5.7-24,17.5.5,1,1.1,2.1,1.7,3.1,5.8,9.5,11.5,19,17.5,28.4,3.1,4.9,6.5,9.7,10.6,13.9.5.5,1,1.1,1.6,1.6,4.8,4.5,10.6,7.2,17,8.7,3.9.9,7.9,1.3,11.9,1.5,2,.1,3.9.1,6.2-.2,0-.1.3-.5.6-.8,1.5-1.9,2.8-4,3.8-6.2,2.1-4.7,2.9-9.7,2.9-14.8,0-5.4-.9-10.7-2.6-15.8-.5-1.5-.9-3-1.8-4.3-2.9-4.4-6.7-8-11.7-10.1-2-.8-3.9-1.8-5.9-2.7-2-.9-3.4-2.4-4.7-4.1-.4-.5-.8-.9-1.2-1.3-1.1-1-2.3-1.9-2.6-3.5,0,0-.2-.2-.4-.3-1.2-.1-1.3,1.4-2.5,1.7-1.2,0-2.4-.7-3.7-1-1.1-.3-2-.9-2.3-2.1,0-.2-.3-.4-.5-.7-.6.5-1.1.9-1.6,1.2-3.4-.8-4.4-1.1-5.8-2.3ZM163.5,442.3c2.2,3.5,4.4,7.2,6.7,10.8,3.2,4.9,6.5,9.6,10.5,13.9,3.8,4,8.2,7,13.4,8.9,3.4,1.3,7,2.1,10.6,2.5,3.5.4,7,.7,10.5.6.7,0,1.3-.1,1.9-.2.4-.4.7-.7.9-1,2.2-2.8,3.8-5.9,4.9-9.3,1.4-4.4,1.8-9,1.7-13.6-.2-5.9-1.6-11.5-3.7-17-.1-.4-.3-.8-.5-1.1-3-4.4-6.7-8-11.7-10.1-1.8-.8-3.6-1.6-5.4-2.4-2-.9-3.6-2.2-4.9-3.9-1.2-1.6-3-2.7-4.2-4.4-.6.4-1.1.7-1.7,1.1-1.4-.4-2.8-.9-4.2-1.3-.7-.2-1.3-.8-1.6-1.5-.1-.3-.4-.7-.6-1.1-.6.5-1.2.9-1.7,1.3-1.9-.8-4.2-.8-5.6-2.3-1-2.7-1.3-5.4-2.5-8-2.5-.5-4.9,0-7.3.4-2,.4-4,.8-5.7,2v35.6ZM202.4,401.4c1.9,1.3,3.5,2.5,5.1,3.7.2.2.5.2.7.3,1.8.6,3.4,1.6,4.9,2.8,4.9,3.9,9.7,7.8,14.6,11.7.3.2.5.7,1.1.2-.2-.5-.3-1-.5-1.5-.9-2.2-1.8-4.4-2.8-6.5-5-10.7-10-21.3-15-32-2.3-4.9-4.5-9.7-6.7-14.6-.9-2-1.6-4-1.3-6.3,0-.3,0-.6,0-.8,0-.2-.2-.4-.4-.7-2.7,2.5-5.7,4.3-9,4.5-2.5-.7-3.9-2.3-5.4-3.7-1.3-1.2-2-2.7-2.4-4.4-.3-1.2-.4-2.4-.5-3.6-.2-3.2.1-6.4.5-9.5.6-5.3,1.4-10.6,2-15.9.6-4.7.6-9.5-.2-14.2-.3-1.7-.4-3.4-1.1-5-.6-.2-1.3-.5-1.9-.7-3.9-1.3-7.9-2.5-11.8-3.7-2.9-.9-5.5-2.2-7.8-4.3-.2-.2-.5-.5-1-.3-.3.8-.2,1.7-.2,2.5,0,27.6,0,55.2,0,82.8,0,2,0,4.1,0,6.1,0,.5,0,1.1.5,1.6.2,0,.6.1.9.2,1.9.3,3.9.6,5.8,1,5.5,1,10.9,2.3,16.2,3.7.6.2,1.2.4,1.8.1.4-.6.3-1.3.3-2,0-5.5,0-11,0-16.5,0-2.1,0-4.2,0-6.3,0-1.4.6-2.3,2-2.9.4,0,.8.2,1.3.3,2.6.8,5.2,1.6,7.7,2.5,2.7.9,3.3,1.7,3.3,4.6,0,7.5,0,14.9,0,22.4,0,1.5,0,3-.9,4.5ZM359.4,214.3c-.6-.2-1.2-.5-1.7-.7-4.3-1.4-8.5-2.7-12.8-4.1-24.7-7.9-49.4-15.7-74.1-23.6-31.5-10-63.1-20.1-94.6-30.1-3.5-1.1-7.1-2.2-10.6-3.4-.6-.2-1.2-.5-2-.1-.2,1.8,0,3.5,0,5.3,0,1.7-.2,3.5.2,5.2.3.2.5.3.8.4,64.7,20.6,129.3,41.1,194,61.6.2,0,.5,0,.9.1.1-.4.3-.7.3-1,0-3.2.2-6.5,0-9.8ZM334.5,345.2c.7-.4,1.1-.5,1.5-.8,2.9-1.9,5.8-3.8,8.7-5.6,2.8-1.8,4.1-4.4,4.5-7.6.2-1.5.2-3,.2-4.5,0-23.7,0-47.5,0-71.2,0-1.3,0-2.6-.2-3.9-.6-6.1-3.3-11-8.2-14.6-1.7-1.3-3.7-2-5.7-2.7-8.8-2.8-17.7-5.6-26.5-8.4-3.3-1-6.6-2.1-9.9-3.1-2.9-.9-5.8-.9-8.5.7-3.3,2-6.5,4.2-9.7,6.3-.3.2-.5.4-.2.9,2.1,0,4.1.5,6.1,1.2,11.4,3.7,22.8,7.3,34.3,10.9,3.8,1.2,7,3.2,9.6,6.2,2.8,3.2,4.8,6.9,5.2,11.3.2,1.9.2,3.8.2,5.7,0,23.7,0,47.5,0,71.2,0,2.5-.3,4.9-1.3,7.1,0,.2,0,.4-.1.9ZM166.4,194.1c0,.2,0,.3.1.5,2,0,3.9.4,5.8,1,11.7,3.8,23.5,7.5,35.2,11.2,6.1,1.9,10.1,6.1,12.8,11.7,1.3,2.7,1.7,5.7,1.7,8.7,0,17.3,0,34.6,0,51.9,0,7.5,0,15,0,22.6,0,2.1-.3,4.2-1.1,6.1-.1.3-.2.6-.3.9.8.2,1.1-.2,1.6-.5,2.9-1.9,5.8-3.8,8.7-5.6,2.5-1.6,3.8-4,4.3-6.8.2-1.4.3-2.8.3-4.2,0-24.3,0-48.7,0-73,0-1.3,0-2.6-.3-3.8-.8-5.7-3.4-10.4-8.1-13.8-1.7-1.3-3.7-2-5.7-2.7-7.7-2.4-15.4-4.9-23-7.3-4.5-1.4-8.9-2.8-13.4-4.2-3.4-1.1-6.7-.7-9.7,1.4-2.6,1.8-5.2,3.4-7.8,5.1-.4.3-.8.6-1.2,1ZM184.8,397.5c-1.3-.8-2.6-.7-3.9-.9-2.7-.5-5.4-.7-8.1-.3-2.9.4-5.7.9-8.6,1.6-1.1.3-2.3.5-3.3.9-2,.8-3.9,1.9-5.7,3.1-2.4,1.7-4.6,3.6-6.3,6-2.1,2.9-3.8,6.1-5,9.5-1.3,3.7-2.1,7.4-2.4,11.3-.3,3.4-.2,6.9.3,10.3.6,4.6,1.6,9.1,3.2,13.4,1.6,4.4,3.7,8.6,6,12.6,2.3,3.9,5.1,7.5,8.1,10.9,3.5,3.8,7.4,7.1,11.8,10,6.4,4.2,13.3,7.2,21,8.3,1.5.2,3,.2,4.4.5,2.4.4,4.7-.1,7.1-.2,1.1,0,2.2-.2,3.2-.5,2-.6,4-1.1,6-2,1.6-.7,3.2-1.6,4.7-2.5,3-1.8,5.5-4.1,7.6-6.9,2.3-3,4-6.3,5.3-9.8.5-1.2.6-2.3.3-3.6-1.1-4.7-2-9.4-2.7-14.2-.5-3.4-1.6-6.7-2.8-10-.1-.3-.2-.8-.8-.7,0,.6.2,1.1.3,1.6.8,3.6,1.2,7.2,1.3,10.9,0,4.3-.6,8.5-2,12.6-.5,1.5-1.2,2.8-1.9,4.2-1.2,2.4-2.9,4.4-4.8,6.3-5.3,5.4-11.8,7.9-19.2,7.8-3.9,0-7.7-.7-11.3-2.1-1.8-.7-3.6-1.5-5.4-2.4-1.3-.6-2.7-1.3-3.9-2.1-3.5-2.2-6.7-4.8-9.7-7.7-3.1-3-5.9-6.2-8.4-9.7-2.4-3.4-4.4-7-6.1-10.8-2.8-6.3-4.5-12.9-4.6-19.9,0-4,.4-7.9,1.6-11.6,2-6.2,5.8-11.1,11.2-14.7,2-1.3,4.2-2.3,6.5-2.8,2.3-.6,4.7-.9,7-.9.4,0,.7-.2,1.2-.3-.3-1.4-.5-2.6-.8-4.1.4-.4.8-.7,1-1,.6,0,.8,0,1.1,0,.4,0,.8.2,1.2.3,1.3.4,2.6.8,3.9,1.2.4.1.9.1,1.3.1.5-.6,1-1.1,1.1-1.9ZM299,433.8c-.9-.5-1.6-.7-2.4-.8-.8-.1-1.6-.3-2.4-.4-2.4-.3-4.8-.5-7.3-.2-2.8.4-5.6,1-8.4,1.5-4.4.8-8.1,3-11.5,5.8-2,1.7-3.7,3.6-5.1,5.8-1.6,2.4-2.8,4.9-3.9,7.6-.7,1.8-1.2,3.6-1.6,5.4-.4,2.2-.8,4.4-1,6.6-.4,5.2,0,10.3,1.1,15.4,1.2,6,3.4,11.7,6.3,17.1,2.2,4.3,4.9,8.2,8,12,2.6,3.2,5.6,6.1,8.8,8.7,4.2,3.4,8.8,6.3,13.8,8.5,5.9,2.6,12.1,3.9,18.5,4.2.4,0,.8,0,1.2,0,1.9-.2,3.9-.5,5.8-.7,2.3-.2,4.5-1,6.6-1.8,1.9-.7,3.7-1.6,5.4-2.7,3.1-1.9,5.7-4.3,7.9-7.2,2.1-2.8,3.7-6,5-9.2.6-1.4.7-2.7.3-4.1-.9-4-1.6-8-2.3-12-.6-3.8-1.5-7.4-2.8-11-.2-.6-.3-1.3-.9-1.7,0,0-.2.1-.2.2.2,1.2.4,2.4.7,3.6,1.3,7,1.3,13.9-.9,20.7-.8,2.6-2,5-3.6,7.3-1.8,2.6-4.1,4.9-6.7,6.8-2.8,2.1-5.9,3.5-9.3,4.3-4.7,1-9.4.7-14.1-.3-2.9-.7-5.6-1.8-8.4-3.1-3.5-1.6-6.8-3.7-9.8-6.1-4.3-3.4-8-7.3-11.4-11.5-2.3-3-4.3-6.1-6-9.4-2.4-4.6-4.2-9.4-5.3-14.5-1.2-5.6-1.4-11.3-.3-16.9.3-1.5.7-2.9,1.2-4.3,1.6-4.7,4.4-8.7,8.1-12,3.6-3.2,7.8-5,12.6-5.6.9-.1,1.8-.2,2.6-.3.4,0,.7-.2,1.2-.3-.2-.8-.3-1.4-.4-2.1-.1-.7-.3-1.4-.5-2.4.4-.4.7-.7,1.1-1.1.9.2,1.5.3,2.2.5,1.6.5,3.2,1,4.8,1.5.5.2,1,.2,1.6.3.4-.6.8-1.2,1.2-1.9ZM353.9,470.4c0-.2-.1-.4-.2-.6-.3-.5-.7-1-1-1.5-2.9-3.9-6.2-7.3-9.8-10.5-5.2-4.6-10.7-8.8-16.1-13-.4-.3-.9-.5-1.2-.7-1.5.2-2.6,1-3.5,1.9-2.8,2.6-5,5.7-6.5,9.2-.2.6-.4,1.1-.5,1.7,0,.4,0,.9,0,1.5.7.4,1.3.8,2,1.1,2,.9,4.1,1.9,6.1,2.8,1.6.7,3,1.5,4.4,2.5,5.6,4.3,9.6,9.7,12.3,16.2,1.2,2.9,2.2,6,2.7,9.1.2,1.4.4,2.8.6,4.2,1.5,8.1,3.2,16.1,5.1,24,.2.6.4,1.3.6,1.8,1.2.7,2.3.8,3.5.8,3.4,0,6.7-.7,9.9-1.8.7-.2,1.4-.5,1.9-1.3-.1-.5-.3-1.2-.5-1.8-1.8-6.7-3.6-13.3-5.4-20-2-7.3-4.1-14.5-7.9-21-.2-.3-.2-.8-.3-1.1,1-1.6,3.1-1.9,4-3.5ZM235,484.1c1,.5,2.1.7,3.3.7,3.4,0,6.7-.7,9.9-1.8.7-.2,1.4-.5,1.9-1.3-.1-.6-.3-1.2-.5-1.9-1.7-6.3-3.4-12.7-5.2-19-2.1-7.6-4.2-15.2-8.2-22-.2-.3-.2-.8-.3-1.1,1-1.6,3.1-1.9,4-3.5-.2-.8-.8-1.4-1.3-2.1-2.8-3.7-6-7.1-9.5-10.3-5.3-4.7-10.9-8.9-16.4-13.3-.4-.3-.9-.5-1.3-.7-1.9.6-2.8,1.2-4.2,2.6-2.1,2.2-3.9,4.7-5.3,7.4-.4.8-.7,1.8-1,2.7-.1.5,0,1,0,1.6.6.4,1.2.8,1.8,1.1,1.3.7,2.7,1.3,4,1.9,1.3.6,2.6,1.1,3.9,1.7,2.6,1.3,4.8,3.3,6.8,5.4,6,6.3,9.5,13.9,11,22.5.7,3.8,1.3,7.6,2.1,11.4,1.1,5.3,2.3,10.6,3.5,15.9.2.7.3,1.5.8,2.1ZM202.4,311.3c0,.8,0,1.4.2,2,.3,1.7.6,3.3.9,5,0,.5.1,1.1.1,1.6,0,13.2,0,26.3,0,39.5,0,1.9.3,3.8,1.1,5.5.1.3.2.6.4.9,2,4.4,4,8.9,6.1,13.3,6.7,14.1,13.7,28.2,19.6,42.7.3.7.7,1.3,1.3,1.8,1.2,1.1,2.3,2.3,3.4,3.5,3,3.2,5.7,6.7,7.9,10.5.2.3.2.8.9.7,0-.3,0-.7-.1-1-.5-1.5-.9-3-1.4-4.5-3.2-9.2-6.8-18.2-10.9-27-5-10.8-10.1-21.5-15.1-32.2-1.7-3.6-3.3-7.1-4.9-10.7-.3-.6-.5-1.3-1.2-1.4,0-1.3.1-2.5.1-3.7,0-11.7,0-23.5,0-35.2,0-2.5-.1-5,.5-7.5,0-.3.1-.5,0-.8,0-.4,0-.8-.1-1.1-1.5-.4-2.9-.8-4.2-1.2-1.4-.4-2.7-1.1-4.5-1.1ZM316.4,347.3c0,.9,0,1.4.1,2,.3,1.6.6,3.2.8,4.8.1.8.2,1.6.2,2.4,0,13.5,0,27,0,40.5,0,.8,0,1.6.4,2.4.7,1.6,1.2,3.3,2,4.9,3.3,7.2,6.7,14.4,10.1,21.5,5,10.6,10.1,21.2,14.5,32,.4.9.9,1.6,1.6,2.3,4.3,4.2,8.1,8.7,11.2,13.9.2.3.4.5.8,1,.2-.8,0-1.3-.2-1.8-1.5-4.3-2.9-8.6-4.5-12.8-3.6-9.4-7.7-18.7-12-27.8-4.2-8.9-8.4-17.8-12.6-26.6-1-2.2-2-4.4-3-6.7-.3-.6-.4-1.2-1.2-1.3,0,0,0-.1,0,0,0-1.1.1-2,.1-2.8,0-11.7,0-23.3,0-35,0-3-.2-6.1.5-9.1.1-.4,0-.9,0-1.3-2.9-.8-5.7-1.7-8.8-2.5ZM263.6,471.7c.4.6.7,1.3,1.1,1.9,1.8,2.9,3.5,5.8,5.3,8.6,2.9,4.7,5.9,9.4,8.9,14.1,2.9,4.5,6.2,8.7,9.8,12.7,2.9,3.2,6.3,5.8,10,7.9,5.2,2.9,10.8,4.5,16.7,5.6.5,0,1.1.2,1.6,0,4.1-.7,7.8-2.2,11.1-4.7.4-.3.9-.6,1-1.3-.3,0-.6-.2-.9-.2-2.4-.1-4.7-.2-7.1-.3-1.6-.1-3.2-.3-4.8-.6-2.8-.5-5.5-1.2-8.2-2.2-3.4-1.3-6.5-3-9.3-5.3-3.9-3.1-7.1-6.9-10.1-10.8-2.6-3.3-4.8-6.9-7.1-10.4-5.4-8.6-10.6-17.3-15.9-26-.2-.3-.5-.6-.9-1-.2.6-.4.9-.5,1.3-.8,3.5-1,7.1-.7,10.7ZM215.6,480.3c-.7-.1-.9-.2-1.2-.2-1.8,0-3.7-.2-5.5-.3-5-.2-9.8-1.1-14.5-2.8-3.5-1.3-6.6-3.1-9.5-5.3-3.9-3-7-6.8-10-10.6-2.3-2.8-4.2-6-6.2-9-3.5-5.5-7-11.2-10.4-16.8-2.1-3.5-4.2-7-6.3-10.4-.3-.4-.4-1-1.1-1.1-1.1,2.1-1.6,7.7-1.1,12,1.1,1.8,2.3,3.7,3.4,5.6,4.7,7.5,9.1,15.1,14.2,22.3,1.6,2.3,3.3,4.6,5.3,6.7,1.3,1.4,2.5,3,4,4.4,3.9,3.7,8.4,6.4,13.3,8.4,3.8,1.5,7.7,2.5,11.7,3.2.5,0,1,.1,1.4,0,4.1-.7,7.9-2.2,11.3-4.8.4-.3.6-.6,1.2-1.2ZM362.1,214.1c0,3.3-.1,6.7,0,10,0,.2.2.3.3.4.9-.1,1.5-.7,2.2-1.1,6.3-4,12.5-8.1,18.8-12.2,7.7-5,15.5-10,23.2-15,.7-.4,1.4-.8,2-1.7,0-2.8,0-5.8,0-8.8,0-.4,0-.8-.1-1.2,0,0,0-.1,0-.2,0,0-.1,0-.3-.1-.2,0-.4,0-.7.2-2.5,1.4-44.2,28.6-45.3,29.6ZM145.4,411.8c-.3-.8-.6-1.6-.8-2.4-.4-1.4-.6-2.9-1-4.4-.6-2.9,1.7-5.9,4.2-6.6,3.3-.9,6.5-1.2,9.9-.9,2.3.2,4.4,0,6.6-.4,3-.7,6.1-1.3,9.2-1.7,3.6-.4,7.2,0,10.7.7,1,.2,2.1.4,3.6.6.2,0,.7.3,1.3.5.1-.2.2-.4.4-.7-.6-.2-1.2-.5-1.7-.6-1.8-.5-3.5-.9-5.3-1.4-6.6-1.7-13.2-3-19.9-3.8-1.6-.2-3.2-.3-4.9-.3-2.1,0-4.2.1-6.3.2-3.3.1-6.4,1-9.3,2.5-1.5.8-2.8,1.9-3.7,3.4-1,1.9-1.7,3.8-1.8,6,0,1.9,0,3.8.4,5.7.7,4.1,2.4,7.8,4,11.5.1.3.5.6.8.9,1.2-2.9,2.4-5.8,3.6-8.8ZM303.4,432.8c-.6-.2-1.2-.4-1.8-.6-5.7-1.6-11.5-2.9-17.4-4-3.7-.7-7.3-1.3-11.1-1.4-3,0-6,0-8.9.1-2.8.2-5.6,1-8.1,2.4-1.5.8-2.9,1.8-3.7,3.4-1.1,1.9-1.8,3.9-1.9,6.1,0,1.9,0,3.8.4,5.7.7,4.1,2.4,7.9,4.2,11.6.1.3.4.4.7.7,1.2-3,2.4-5.9,3.6-8.8-.3-.8-.6-1.6-.8-2.5-.4-1.5-.7-3-1-4.6-.5-2.9,1.8-5.7,4.1-6.2.5-.1,1-.3,1.6-.4,2.9-.6,5.9-.9,8.9-.5,1.8.2,3.6.2,5.4-.3.9-.2,1.8-.5,2.8-.6,2.6-.5,5.2-1,7.8-1.3,3.4-.3,6.8,0,10.1.8,1,.2,2,.4,3,.5,0,0,0,0,0,0,.6.2,1.3.4,1.9.6.1-.3.2-.4.3-.7ZM302.7,355.3c0,.6,0,1-.1,1.4-.2,2.2-.3,4.5-.6,6.7-.7,5.4-1.4,10.7-2.1,16.1-.4,3-.4,6.1-.1,9.1.1,1.7.6,3.3,1.5,4.8.7,1.3,1.9,2,3.2,2.3,1.1.2,2.2.2,3.1-.9,0-.4.2-.8.2-1.3-.1-1.3-.2-2.7-.5-4-.3-1.1-.5-2.3-.5-3.4,0-2.1,0-4.2.3-6.3.6-5.4,1.4-10.7,2.1-16.1.4-3.4.8-6.7.5-10.1-.2-2.3,0-4.6.5-6.8.1-.4,0-.9,0-1.3-2.5-1.1-7.3-2.6-8.7-2.6-.3.7,0,1.4.1,2.2.4,2.7,1.2,5.4,1,8.2,0,.3,0,.7.1.9.6.7,1.3.9,2.1,1,.7,0,1.4,0,2,0,.3,0,.6,0,.6.4-1.5,1-2.9.1-4.6-.2ZM188.9,319.1c0,.6-.2,1.2-.2,1.7-.2,2.2-.3,4.5-.6,6.7-.6,5.3-1.4,10.6-2.1,15.9-.4,2.8-.4,5.5-.2,8.3,0,1.8.6,3.6,1.4,5.3.6,1.3,1.7,2.1,3.1,2.5,1.1.3,2.3.3,3.2-.6.4-1.3.4-1.3.3-2.2-.2-1.5-.2-3-.8-4.4-.1-.4-.2-.8-.2-1.2,0-2.1,0-4.2.1-6.3.6-5.4,1.4-10.7,2.1-16.1.5-3.7.8-7.4.6-11.1-.1-2.3-.2-4.6.4-6.9.1-.4,0-.9.1-1.4-.5-.2-.9-.4-1.3-.6-2.3-.7-4.7-1.4-7-2.1,0,0-.2,0-.5.2,0,.3,0,.7,0,1.1.2,1,.3,2,.5,3,.3,1.9.7,3.7.6,5.6,0,.5,0,1.1.1,1.5.7.7,1.5.9,2.3,1,.8.1,1.6-.2,2.5.3-1.7,1.1-3,.3-4.7,0ZM372.8,531.5c0-.5,0-.7,0-.9-1.2-4.3-2.3-8.6-3.5-12.9,0-.3-.3-.5-.5-.8-.5.3-.9.5-1.3.8-1,.6-1.9,1.3-2.8,2-1.4,1.1-3,1.7-4.8,2.1-2.3.6-4.6.9-7,.9-.5,0-1.1-.2-1.5.3,0,1.6,2.9,12.3,3.8,14.1.4.1.8.3,1.3.3,1.6.3,3.2.1,4.8-.1,1.7-.2,3.5-.5,5.1-1.4,2.3-1.3,4.4-2.9,6.5-4.4ZM254.9,480.6c-.5.2-.9.4-1.3.7-1.1.7-2.1,1.4-3.2,2.2-1.3,1-2.8,1.6-4.4,2-2.4.6-4.8,1-7.2.9-.5,0-1.1-.1-1.6.4,0,1.6.7,3.1,1.1,4.6.4,1.6.8,3.1,1.3,4.7.5,1.5.6,3.2,1.5,4.7.4.1.9.3,1.3.3,1.7.2,3.4.1,5.1-.1,1.7-.3,3.5-.5,5-1.5,2.1-1.3,4.1-2.8,6.2-4.2,0,0,.1-.2.2-.5-1-4.3-2.3-8.6-3.5-13,0-.4-.3-.7-.5-1.2ZM314.5,434.6c.1-.7.2-1.1.2-1.4,0-2.8,0-12.2,0-12.8,0-2.4,0-4.9,0-7.3,0-.5.4-4.6-.2-5.2-.1,0-.7-.5-.8-.6-3.3-1.1-6.7-2.2-10-3.2-.3,0-.6,0-1,0-.1.3-.2.6-.3.8,0,.3,0,4.5,0,5.1,0,1.4,0,2.8,0,4.3,0,1.3,0,14.8.3,16.4,1.7.9,11.1,3.7,11.8,3.8ZM189.8,390c0,1.7-.2,3.4.2,5.1.9.3,1.7.6,2.5.9.4.1,7.9,2.6,9.2,2.8.1-.4.3-.6.3-.9,0-3-.1-19.8,0-23.6.2-.7,0-2.3-.8-2.7-3.3-1.2-6.9-2.3-10.4-3.3-.2,0-.5,0-.7,0-.5.6-.4,19.9-.4,21.6ZM316.2,388.7c.5-.9.4-1.7.4-2.4,0-8.7,0-17.5,0-26.2,0-3.9-.3-7.7-1.1-11.5-.1-.5-.2-1-.4-1.6-.9-.3-1.8-.6-2.7-.9-.3,0-.6,0-.9,0-.1.3-.2.5-.3.7-.6,2.2-.5,4.4-.5,6.7,0,2.2,0,4.5-.2,6.7-.6,5.4-1.3,10.8-2,16.1-.2,1.6-.4,3.2-.6,4.8,0,.5-.2,1.1.4,1.6,1,.2,2,.3,3.1.5,2.3,1.1,2.8,3.7,4.8,5.5ZM264.1,475c0,.4,0,.9,0,1.3,1,6.1,3,11.8,5.9,17.2,3.4,6.4,7.7,12.1,13.1,17,4.9,4.3,10.3,7.7,16.4,10,2.5,1,5.2,1.6,7.9,2,.6.1,1.3.3,2.1-.1-.5-.5-1.1-.6-1.7-.8-2.7-.8-5.3-2-7.9-3.2-2.2-1.1-4.2-2.5-6.1-4-4.4-3.4-7.9-7.6-11.3-11.9-2.5-3-4.6-6.4-6.7-9.7-2.9-4.5-5.7-9.1-8.5-13.6-.7-1.2-1.4-2.3-2.2-3.5-.2-.3-.4-.8-1-.7ZM162.3,439.3c0-1.1,0-1.9,0-2.7,0-8.8,0-17.6,0-26.4,0-.5,0-1.1,0-1.6,0-.3-.1-.6-.2-.9-4.2,1-9.7,8.4-10.8,13.9.8,2.1,8.7,15.3,10.2,17.3.1.1.3.2.8.4ZM351.1,474.1c.2.5.4.9.6,1.3,2.4,4.2,4.1,8.7,5.5,13.3,1.5,5.2,3,10.4,4.4,15.6,1,3.6,1.9,7.2,2.9,10.8.2.6.2,1.4,1,1.8,1-.6,2.1-1.2,2.9-2.2-.1-.6-.3-1.3-.4-1.9-1.9-6.9-3.7-13.7-5.6-20.6-1.2-4.2-2.4-8.5-4-12.6-.9-2.2-2-4.4-3.1-6.6-.2-.4-.5-.7-.9-1.2-1.2.6-2.2,1.4-3.3,2.3ZM237.3,437.8c0,.9.5,1.4.8,2.1,1,2.1,2.1,4.1,2.9,6.3,1.2,3.4,2.4,6.8,3.4,10.2,2.1,7.4,4.1,14.7,6.1,22.1.2.7.3,1.4.8,2,1.5-.5,2-.8,3.2-2.2-.1-.5-.2-1.1-.4-1.7-1.3-5-2.6-9.9-4-14.9-1.4-4.9-2.7-9.8-4.3-14.6-1.1-3.6-2.5-7.1-4.5-10.4-.2-.4-.5-.7-.9-1.1-1.2.7-2.3,1.4-3.2,2.2ZM163.5,468.3c.6.7,1.1,1.4,1.6,2,3.7,4.1,8,7.5,12.7,10.4,4.1,2.4,8.5,4.3,13.1,5.3,1.3.3,2.5.4,3.8.6.2,0,.6,0,.6-.5-.9-.3-1.8-.7-2.8-1-2.9-.9-5.7-2.2-8.3-3.8-4.2-2.5-7.9-5.5-11-9.3-1-1.1-2-2.2-2.9-3.4-1.2-1.4-2.3-2.9-3.4-4.3-.9-1.1-1.6-2.3-2.5-3.5-.2-.3-.4-.6-.9-.4,0,.1-.2.3-.2.5,0,2.4,0,4.9,0,7.5ZM304.1,451.4c0-.5,0-.7,0-1-1-3.6-1.9-7.2-2.9-10.8-.3-1-1-1.6-1.9-1.9-3.1-1-6.2-2-9.3-2.9-.3,0-.6,0-1,0-.1,1.7.6,3,.9,4.4.4,1.5.8,3,1.2,4.5.4,1.4.6,2.9,1.4,4.2.8.3,1.7.6,2.5.8.3.1.7.2,1-.3,0-.5-.2-1.1-.3-1.6-.4-1.5-.8-3-1.2-4.5-.2-.7-.5-1.4-.3-2.3.3-.2.7-.5,1.1-.8,1.6.7,2.6,1.7,3,3.3.5,1.9,1,3.8,1.6,5.7.2.7.4,1.4.7,2.2,1.2.4,2.2,1,3.7,1ZM182.3,403.5c1.7.5,2.7,1.5,3.2,3.1.6,2,1.1,3.9,1.6,5.9.2.8.3,1.6,1,2.4.8.3,1.7.6,2.6.8.3,0,.6,0,.9-.1-.2-2.4-1-4.3-2.7-5.9.2-1,.3-1.9.5-2.9-.3-1-.6-2-.9-3-.2-.7-.7-1.2-1.3-1.5-.3-.1-.6-.3-1-.4-2.8-.9-5.5-1.8-8.3-2.6-.4-.1-.9-.2-1.4-.3-.1.3-.3.5-.3.6,1,4.2,2.1,8.4,3.4,12.6,1,.3,1.9.6,2.8.9.3,0,.6,0,1,0-.5-2.9-1.6-5.6-2-8.4.3-.3.6-.6,1-1ZM162.3,457.5c-.2-.4-.4-.8-.6-1.1-3.4-5.5-6.8-10.9-10.1-16.4-.2-.3-.4-.7-.7-1-.1-.2-.4-.2-.7-.3-.2,4.8,3.5,14.8,8.4,22.9,1.8,3.1,2.4,3.7,3.5,4.3.4-1.4.5-3.9.2-8.4ZM205.7,407.1c-.6.7-.9,1.2-1.3,1.7-1.2,1.8-2.5,3.5-3.6,5.4-.7,1.1-1.2,2.3-1.6,3.5-.2.6-.3,1.3-.3,2,0,.6.3,1,1.1,1,2-5.4,5.5-9.8,10.1-13.4-.7-.9-1.5-1.1-2.4-.9-1.1.1-1.8-.3-2.2-1.3,0-.2-.2-.3-.3-.5-.3-.1-.6-.3-.9-.3-1.4.2-2.4.9-3.2,1.8-1.3,1.5-2.6,3.1-3.9,4.7-.5.6-.9,1.4-1.8,1.6-.9-.3-1.4-1-1.5-2.1.4-.7.8-1.5,1.3-2.3,1.1-1.7,2.5-3.2,4.1-4.5.3-.2.5-.6.8-1-.9-.1-1.5-.2-2.1-.3-.6-.5-1.2-.9-1.7-1.2-1.2,0-1.9.6-2.6,1.3-1.1,1.1-2.1,2.3-2.8,3.7-.1.2-.4.5.1.6,1.3-1.6,2.6-3.3,4.2-4.4,1.1-.2,1.5.3,1.9,1-.5.6-.9,1.1-1.3,1.7-1.3,1.7-2.4,3.4-3.2,5.4-.3.8-.8,1.6-.5,2.6.5-.2,1-.3,1.7-.5.4.4.9.9,1.3,1.4.3.9-.4,2,.6,2.8.3-.6.6-1,.8-1.5,1.4-3.2,3.7-5.8,6.3-8.1.3-.2.6-.4.9-.5.2,0,.4,0,.7-.1.3.3.7.6,1.2,1.1ZM146.2,410.3c1.4-1.3,2.2-3,3.5-4.2,1.3-1.2,2.6-2.5,3.9-3.8,1.3-1.3,3.1-1.9,4.3-3.3-.2-.2-.3-.3-.4-.3-.3,0-.5-.1-.8-.2-2.7-.2-5.4,0-8,.7-.5.1-1,.3-1.5.5-1.7.6-2.5,1.9-2.6,3.7-.1,2.1.3,4.2,1,6.2,0,.2.3.4.5.7ZM260,446.8c1.4-1.7,2.5-3.2,3.7-4.5,1.2-1.3,2.6-2.5,3.9-3.8,1.3-1.3,3.1-1.9,4.3-3.3-.2-.2-.3-.3-.4-.3-.3,0-.5-.1-.8-.2-2.7-.1-5.4,0-8,.7-.7.2-1.3.4-1.9.7-1.3.5-1.9,1.5-2.1,2.8-.4,2.6.2,5.1,1.3,7.9ZM222.8,486c0,.1.1.3.2.4,3.2,0,6.4-.9,9.5-1.6.4-.1.8-.4,1.2-.6-.2-2-1-5.1-1.7-6.6-1.1,0-2.2.5-3.3.7-.9,1.3-1.8,2.7-2.8,4-1,1.3-2.1,2.4-3.1,3.7ZM342.7,514.6c-1,1.4-2,2.7-2.9,4-.9,1.3-2.4,2.2-3,3.9.5,0,.9.1,1.3,0,2.9-.3,5.7-1,8.6-1.6.4,0,.7-.4,1-.6-.4-2.5-1.1-5.3-1.8-6.6-1.1.3-2.2.6-3.2.8ZM407.9,182.5c-1,.2-1.7.9-2.5,1.4-13.9,9-27.8,18-41.6,27-.6.4-1.1.7-1.7,1.2-.2.1-.3.4-.4.6.4.4.7.3,1,.1,1-.6,2-1.2,2.9-1.8,13.7-8.9,27.4-17.8,41.1-26.7.5-.3,1-.7,1.5-1.1-.1-.3-.2-.4-.3-.7ZM407,197.8c-.5,0-.8,0-1,0-.5.3-1,.6-1.6.9-10.8,7-21.6,14-32.4,21-3,1.9-6,3.9-9,5.9-.4.3-1,.5-1,1.3.3,0,.5.2.7,0,.6-.2,1.1-.5,1.6-.9,2.3-1.5,4.6-3.1,6.9-4.6,3.9-2.5,7.8-5.1,11.8-7.6,6.9-4.5,13.7-8.9,20.6-13.4.9-.6,1.8-1.2,2.7-1.8.2-.2.4-.5.7-1ZM300.2,433.7q-1.3,1-1.5,2.3c0,0,.2.2.3.3,2.1.7,3.3,2.2,3.7,4.4,0,.5.1,1.2.9,1.7.8-.8,1.3-1.7,1.9-2.6.6-.8,1.6-1.5,2-2.5-1.6-1.6-4.9-3.2-7.3-3.6ZM184.6,399.8c.7.3,1.3.6,1.8.7,1.7.5,2.8,1.6,3.3,3.2.1.4.1.8.8.9,1-1.1,2.1-2.2,3.1-3.7-2.2-1.8-4.6-2.8-7.2-3.6-1,.5-1.5,1.2-1.8,2.4ZM308,387.4c0,.4-.1.6-.1.8.1,1.5.2,3,.5,4.4.2,1.3,0,2.3-.9,3.1-.2.2-.3.5-.6.9,1.3.4,2.3.4,3.1-.4,1.9-3.6,1.1-7.5-2-8.9ZM196.2,360.1c.9-1.2,1-2.4,1-3.6,0-2-.6-3.7-2.1-5-.3-.2-.6-.4-1,0,.2,1.6.3,3.2.5,4.9.2,1.2,0,2.1-.8,3-.3.3-.5.6-.8,1,1.3.4,2.2.4,3.2-.3ZM309.8,386.8c.8,1.5,1.4,2.9,2.7,3.8,1-.4,1.8-.9,2.6-1.8-.8-1.4-1.5-2.8-2.7-3.8-1,.5-1.9.9-2.6,1.8ZM313.7,437.1c-.6-.4-.7-.5-.9-.6-1.4-.7-6.4-2.9-7.4-3.2-.4-.1-.9-.2-1.2.5,1.1,1.2,2.7,1.9,4,2.9.6-.3,1.3-.5,1.7-.7,1.2,0,1.7,1,2.6,1.4.2,0,.5-.1,1.2-.4ZM190.3,397.1v.9c1.3.9,2.6,1.8,3.9,2.6.7-.3,1.4-.5,2.1-.8.5.3.9.6,1.4.9.3.2.5.4.8.6.3.1.7.1.8-.4-.2-.1-.3-.3-.5-.5-2.4-1.1-4.7-2.4-7.2-3.1-.3,0-.6,0-1.2-.1ZM313,452.3v-2.1c.4-1.2,1.2-2.3,2-3.2.4-.4.7-.8,1-1.2.2-.3.3-.6-.1-.9-.2.1-.4.3-.6.4-1.4,1.5-2.6,3.1-3.5,4.9-.4.8-.7,1.8-.9,2.7,0,.4,0,.8,0,1.3.4,0,.7.1,1,.2.4-.7.7-1.4,1-2ZM201.2,353.4c-1.1.2-1.8.8-2.4,1.4-.2.9-.4,1.8-.6,2.6.3.4.5.8.7,1.2,1-.3,1.7-.8,2.3-1.5.1-1.2.2-2.4-.1-3.7ZM201.9,408.6c-1.9,1.7-3.2,3.6-4.2,5.8-.3.7-.6,1.5-.7,2.3,0,.4,0,.8.1,1.3.4,0,.7,0,1.1,0,.4-.8.7-1.5,1-2.3-.5-1.5.1-2.7.9-3.8.5-.7,1.1-1.3,1.7-2,.2-.3.5-.6.1-1.3ZM184.3,405.8c-.8.5-1.1,1-.9,1.6.3,1.6.7,3.3,1.4,4.8q.7-.5,1.1-1.5c-.5-1.6-.7-3.3-1.6-5ZM298.5,447c-.6-3.2-1-4.3-1.7-5.3-.7.4-.9,1-.7,1.7.4,1.5.8,3,1.3,4.5,0,0,.2.1.4.3.3-.4.5-.7.8-1.1ZM313,392.9c-.3,1-1,1.7-.8,2.9.9-.1,1.5-.6,2.1-1.2.2-.5.4-1.1.6-1.7,0-.3.2-.7-.3-.9-.5.3-1,.6-1.6.9ZM229.7,476.8q1,.1,2.1-.5c0-1.5,0-1.5-.7-2.6-.7,1-1.1,1.9-1.3,3.1ZM345.7,512.6q0-1.5-.7-2.7c-.7.9-1.1,1.9-1.4,3.1.9.4,1.5-.1,2.1-.4ZM316.2,438.6c-1.7,1.5-1.9,1.8-2,3.1,1.3-.5,2.2-1.5,3.2-2.4-.5-.3-.8-.5-1.2-.7ZM203.3,403.5c0-.8-.5-.9-1.2-.9-.8.5-1.4,1.3-1.8,2.2,0,.2,0,.5,0,.8,1.3-.5,2-1.6,3.1-2.1ZM195.2,404.4c-1.4.2-1.7,1-2.2,1.6-.5.7-1.1,1.5-.9,2.8,1.3-1.3,2-2.7,3.1-4.4ZM313.7,442.6c-.1-.2-.2-.2-.2-.2-.1,0-.3-.1-.4,0-1.2.6-1.9,1.6-2.4,2.9,0,.1.1.3.3.7,1.1-1.1,2-2.1,2.7-3.2ZM199.8,406.2c-.4,0-.7,0-.9,0-1,.6-1.7,1.5-2.1,2.6,0,.2,0,.5.5.6.6-.7,1.3-1.5,2-2.4.2-.2.2-.4.5-.9ZM306.1,445c.3-.3.6-.5.7-.8.6-1,1.2-2.1,1.9-3.1,0,0-.1-.2-.2-.3-1.6,1.1-2.5,2.5-2.4,4.2ZM198.1,353.8c1.5-.2,2.3-.9,3.1-1.7-.1-.2-.2-.4-.4-.6-1,.5-2.1.8-2.7,2.3ZM315.1,389.9c-.3.2-.7.3-1,.5-.4.2-.8.5-1.1.9,0,0,0,.3,0,.7,1.1-.3,2-.7,2.2-2ZM311.7,384.3c-1.3,0-2.1.4-2.7,1.6,1.2-.2,2-.7,2.7-1.6ZM309.5,383.9c-.5-.2-1-.4-1.6,0,0,.3,0,.6,0,1.1.7-.2,1.2-.4,1.5-1.1ZM191,409.3q-.4.7.2,1.2c.1-.2.3-.4.4-.7-.2-.2-.4-.4-.6-.5ZM305.8,450.8c.1-.2.3-.4.5-.6-.3-.3-.4-.5-.7-.7-.4.6-.3.9.2,1.3ZM304.7,445.4c0,.5-.2.7-.2.9,0,.2.2.3.4.5.6-.6.6-.9-.2-1.4ZM201.6,400.2c-.4-.2-.7-.4-1.1-.5,0,0-.2,0-.3.2,0,0,0,.1,0,.2.3.5.6.5,1.3.1ZM193.9,413.1c-.2.2-.4.4,0,.8.3-.2.4-.3,0-.8ZM194.9,347.8s0,0,.1,0c0-.1.2-.2.3-.4h-.1c0,0-.2.2-.3.3ZM307.7,449.4c0,.2-.2.3-.2.5,0,0,.2.1.3.2,0-.1.2-.3.2-.4,0,0-.2-.1-.3-.2Z"></path><path class="cls-1" d="M387.8,507.7c-.5-.3-.9-.5-1.4-.7-1.4.8-2.7,1.6-4.1,2.5-1.5-.3-3.2-.3-4.3-2.1,0-.5,0-1.2,0-1.9,0-4.4,0-8.8,0-13.2,0-2.1.7-3.7,2.5-4.7.4-.2.8-.5,1.3-.9.1-1.1.2-2.2.3-3.4,1.5-1.5,3.3-2.3,5-3.5,1.5.4,3,.7,4.3,1.6.4.3.8.4,1.3.6,1.2.5,1.8,1.4,1.7,2.7,0,.9,0,1.8,0,2.3.7,1.3,1.3,2.3,1.7,3.4.6,1.5.5,3.1.3,4.6-.5,4.4-2.4,8.1-5.7,11.1-.8.7-1.7,1.3-2.9,1.5ZM395.7,494c.3-1.7,0-3-.4-4.3-.7-1.8-2.1-2.3-4-1.6-1.2.5-2,1.3-2.7,2.4-2.3,3.4-3.4,7.2-3,11.4.1,1.2.5,2.4,1.2,3.3,1.5,1.2,2.9.8,4.2-.1,1.4-1,2.4-2.4,2.9-4,0,0,0-.1-.2-.3-.3.4-.6.9-1,1.2-.7.7-1.4,1.5-2.2,2-1.1.8-1.8.6-2.9-.3,0,0,0-.2,0-.4.5.1,1,.3,1.4.4,1.3-.2,2.3-.8,3-1.8,2-2.8,2.9-6,2.4-9.4,0-.6-.3-1.2-.6-1.7-.4-.7-1.1-1-1.9-.9-.5.1-1,.3-1.6.5q1-1.3,2.8-1.1c1.7.9,2.1,2.7,2.7,4.6ZM379.3,490c-.4,1-.6,1.8-.6,2.7,0,4.3,0,8.7,0,13,0,.5.1,1,.2,1.5.7.4,1.2.7,1.9.3.2-1.3.1-2.8.1-4.2,0-1.4,0-2.8,0-4.3,0-1.4,0-2.8,0-4.3,0-1.4,0-2.8,0-4.2-.4-.2-.7-.3-1-.4-.2,0-.4,0-.7,0ZM386.4,490c-.2.2-.4.2-.4.3-2.2,3.4-3.2,7.1-2.8,11.2.1,1,.4,2,1,2.8.2.3.4.6.9.3,0-.3-.2-.7-.3-1.1-.2-1-.4-2-.4-3,0-2.9.7-5.6,2-8.2.3-.6.6-1.2,1-1.9-.5-.2-.8-.3-1.1-.4ZM388.4,484.9c.7,1,0,2.1-.2,3.5,1.4-.5,2.3-1.4,3.3-1.9.6-1.3-.4-1.9-.7-2.8-.8.4-1.5.8-2.4,1.2ZM382.3,489.3c.6-.3,1.2-.6,1.6-1.2-.5-.7-1.2-.7-2-.6-.4.3-.8.7-1.3,1,.5.6,1,.8,1.8.8ZM382.4,496.5c.6-.8.9-1.7.9-2.6-.4-.3-.7-.3-1,.1-.2.7-.2,1.6.2,2.5ZM383.5,504.5c-.4-.7-.3-1.4-1.1-1.8-.4.8-.4,1.5,0,2.2,0,0,.2.1.5.2.2-.2.4-.4.7-.6ZM386.9,483.5c1,0,2.1.3,2.7-1-.4-.2-.7-.3-1-.5-.7.3-1.4.5-1.7,1.5ZM383.5,489.7c.4.4.5.7.7.8.1.1.3.1.6.2.3-.5.6-.9.9-1.4-.2-.3-.3-.4-.6-.8-.5.4-1,.7-1.7,1.1ZM383.1,486.7c.2-.9.4-1.6.6-2.3-.4,0-.6,0-.9,0-.2.8-.3,1.5.3,2.4ZM385.9,506.5c-.6-.4-.9-.8-1.4-.5,0,.3,0,.7-.2,1.3.6-.3,1-.5,1.6-.8ZM386.4,487.6c0,0-.2-.1-.3-.1,0,0-.1.1-.1.1,0,0,.1.2.2.2,0,0,.1-.2.2-.3Z"></path><path class="cls-1" d="M394.4,384.7c2.3,2.3,2.4,5,2,7.7-.5,4.2-2.4,7.9-5.5,10.8-.9.8-1.8,1.4-3.1,1.7-.4-.2-.9-.4-1.4-.7-1.3.8-2.6,1.6-4,2.5-1.6-.2-3.2-.2-4.4-2,0-.5,0-1.1,0-1.7,0-4.5,0-9.1,0-13.6,0-2.1.7-3.5,2.5-4.5.4-.2.8-.5,1.3-.9.1-1.1.2-2.2.3-3.4,1.5-1.5,3.4-2.4,5-3.4,2.4.3,4.2,1.6,6.1,2.5.8.4,1.2,1.1,1.2,2,0,1,0,2,0,3.1ZM394.2,397.1h0c0,0,0,0,0,0-.1.3-.2.6-.4.9-.3.3-.6.5-.9.8-.6.6-1.2,1.3-1.8,1.9-.8.8-1.8,1.2-3.1.8-.2-.2-.5-.6-.9-.9h0c.6.1,1.2.3,1.7.4,1.6-.3,2.6-1.2,3.4-2.5.9-1.5,1.6-3.1,1.9-4.9.2-1.3.2-2.7,0-4-.1-1.2-.5-2.3-2.1-2.5-.3,0-.7.2-1,.3-.4.2-.8.5-1.2.7-.3.1-.4.6-.9.4,1.1-1.2,2.1-2.5,4.1-2.1.4.3.9.7,1.2,1.2.4.5.6,1.1.8,1.6.2.5.3,1,.6,1.8.2-1.8,0-3.1-.6-4.3-.7-1.6-2-2.1-3.7-1.5-1.3.5-2.2,1.3-2.9,2.4-2.4,3.5-3.5,7.5-3,11.7,0,.7.3,1.5.6,2.1.5,1.2,1.5,1.7,2.8,1.5.7-.1,1.4-.4,2-.9,1.4-1,2.4-2.3,2.8-4.1.1-.3.2-.6.4-.9ZM380.7,404.9c.4-2,.5-10.2.2-17.2-.5-.4-1-.5-1.7-.4-.4.8-.5,1.7-.5,2.6,0,4.3,0,8.5,0,12.8,0,.6.1,1.2.2,1.8.6.2,1.1.3,1.7.5ZM385,402.1c-1-8.1-.5-7.5,2.4-14.6-.3-.1-.7-.3-1-.4-.2.2-.4.3-.5.5-2.1,3.3-3.1,6.9-2.7,10.8,0,1,.5,1.9.9,2.9.1.3.5.5.9.9ZM391.5,383.8c.6-1.4-.4-2-.7-2.9-.5.3-.8.5-1.1.7-.3.2-.7.3-1,.4,0,1.2-.2,2.3-.3,3.6,1.2-.3,2-1.3,3.1-1.7ZM382.3,386.4c.6-.3,1.2-.5,1.5-1.2-.5-.7-1.1-.7-2-.6-.4.3-.8.6-1.3,1,.4.8,1.1.8,1.8.8ZM382.4,393.7c.4-.9,1-1.7.8-2.9-.4,0-.7,0-1,0-.2,1-.3,1.9.2,2.8ZM386.9,380.1c0,.2,0,.4.1.6.8-.1,1.8.2,2.5-.7,0,0,0-.3,0-.5-.3-.1-.7-.2-1.1-.4-.5.3-1,.7-1.5,1ZM383.4,401.7c-.3-.8-.3-1.4-1.1-1.9-.4,1-.4,1.7.1,2.6.3-.3.6-.4.9-.7ZM385.3,385.8c-.7.2-1.2.5-1.5,1.2.3.3.6.6,1,1,.4-.6.7-1.1,1-1.5-.2-.3-.3-.4-.5-.7ZM383.3,383.5c.1-.6.2-1.3.4-2h-.8c-.2.7-.2,1.4.4,2ZM384.4,404c.7.2,1,0,1.3-.6-.3-.1-.6-.2-.9-.3-.1.3-.2.6-.4,1ZM386.4,384.8c0,0-.2-.1-.3-.2,0,0-.1.1-.1.1,0,0,.1.2.2.3,0,0,.1-.2.2-.2Z"></path><path class="cls-1" d="M282.6,245.4c.2-.3.7-.7,1.1-1.1,1-.1,1.7.3,2.4.5,5.7,1.8,11.5,3.6,17.2,5.5,5.4,1.7,10.8,3.4,16.3,5.2,1,.3,1.9.6,2.7,1.4.6.7,1,1.4,1.1,2.3,0,.6,0,1.2,0,1.8,0,15,0,29.9,0,44.9,0,.4,0,.8,0,1.2,0,1.4-.5,2.4-1.9,2.9-.5-.1-1-.2-1.5-.4-11.3-3.6-22.7-7.2-34-10.8-1.5-.5-2.7-1.3-3.3-2.7-.2-1.9-.2-48.7,0-50.7ZM322.2,308.7c0-.6.1-1.2.1-1.8,0-15.6,0-31.2,0-46.8,0-2.7-.2-3-2.9-3.9-11.1-3.5-22.2-7.1-33.3-10.6-.5-.2-1-.3-1.6-.4-.5-.1-.9,0-1.4.6,0,.7,0,1.6,0,2.4,0,7.2,0,14.4,0,21.6,0,8.2,0,16.4,0,24.6,0,2.3.4,2.8,2.5,3.6.3,0,.5.2.8.2,10,3.2,20,6.4,30,9.5,1.2.4,2.3.8,3.5,1.1.7.2,1.4.5,2.4-.2Z"></path><path class="cls-1" d="M207.5,273.8c-.6-.2-1.2-.3-1.9-.5-11.1-3.5-22.2-7-33.3-10.6-.5-.2-1-.3-1.5-.6-1.4-.7-2.3-1.8-2.3-3.5,0-2.1,0-4.2,0-6.3,0-13.4,0-26.8,0-40.2v-2.5c.4-.5.8-.9,1.2-1.3.3,0,.5-.2.7-.2.7.1,1.5.3,2.2.5,11,3.5,21.9,7,32.9,10.5.5.2,1.1.3,1.5.5,1.4.7,2.4,1.8,2.4,3.5,0,.4,0,.8,0,1.2,0,15.1,0,30.2,0,45.3,0,.4,0,.8,0,1.2,0,1.4-.5,2.3-1.9,2.9ZM169.6,209.2c-.1.3-.3.7-.4,1.1,0,.6,0,1.2,0,1.8,0,15.1,0,30.2,0,45.3,0,.5,0,.9,0,1.4,0,.8.3,1.6,1.1,2.4.6.2,1.4.5,2.3.8,10.8,3.4,21.5,6.9,32.3,10.3.7.2,1.4.4,2.2.6.4,0,.8,0,1.1-.1.5-.7.4-1.4.4-2.1,0-15.6,0-31.2,0-46.8,0-2.8-.8-3.2-2.7-3.8-6.7-2.1-13.4-4.3-20.1-6.4-4.5-1.4-8.9-2.8-13.4-4.2-.8-.3-1.6-.7-2.6-.2Z"></path><polygon class="cls-1" points="387.2 400.6 387.2 400.4 387.2 400.6 387.2 400.6"></polygon></g></g></g></svg>