<svg xmlns="http://www.w3.org/2000/svg" id="Livello_1" viewBox="0 0 720 720"><defs><style>.cls-1{fill:none;}.cls-2{fill:#010101;}.cls-3{fill:#fff;}</style></defs><rect class="cls-1" width="720" height="720"></rect><path class="cls-3" d="M137.91,206.06c-49.45,1.21-87.94,21.43-114.61,62.59-27.1,41.84-29.29,99.76,3.36,146.29,26.75,38.11,64.42,56.67,111.09,57.49v-45.97c-20.23-.07-38.32-5.65-54.18-17.69-15.75-11.96-26.45-27.34-31.83-47.36h85.99v-44.61H51.35c14.54-41.68,43.1-63.09,86.56-64.99v-45.75ZM309.79,206.89c-34.41-2.61-82.09,14.73-111.17,56.45-30.76,44.14-34.03,107.97,4.49,157.73,27.61,35.66,73.15,53.24,106.67,50.63v-45.23c-20.19-.1-38.28-5.68-54.18-17.66-15.84-11.93-26.36-27.46-31.86-47.49h86.1v-44.25h-86.08c3.49-13.48,9.49-24.8,18.15-34.58,17.9-20.23,40.54-30.32,67.88-30.39v-45.22ZM390.93,472.24V206.03h-45.57v266.21h45.57Z"></path><path d="M137.91,206.06v45.74c-43.46,1.89-72.02,23.3-86.56,64.99h86.38v44.61H51.73c5.38,20.02,16.08,35.4,31.83,47.36,15.86,12.04,33.95,17.62,54.18,17.69v45.97c-46.67-.82-84.34-19.38-111.09-57.49-32.64-46.52-30.46-104.45-3.35-146.28,26.67-41.16,65.16-61.38,114.61-62.59Z"></path><path d="M309.79,206.89v45.22c-27.34.07-49.97,10.16-67.88,30.39-8.67,9.79-14.66,21.1-18.15,34.58h86.08v44.25h-86.1c5.49,20.03,16.01,35.56,31.86,47.49,15.9,11.97,34,17.55,54.18,17.66v45.23c-33.52,2.61-79.07-14.96-106.67-50.63-38.51-49.76-35.24-113.59-4.49-157.73,29.08-41.71,76.76-59.06,111.17-56.45Z"></path><path d="M390.93,472.24h-45.57V206.03h45.57v266.21h0Z"></path><polygon class="cls-2" points="472.94 429.5 479.18 429.5 479.18 404.7 487.88 404.7 487.88 399.1 464.09 399.1 464.09 404.7 472.94 404.7 472.94 429.5"></polygon><path class="cls-2" d="M499.48,421.93h9.51l2.7,7.58h6.69l-10.86-30.41h-5.41l-11.75,30.41h6.19l2.94-7.58ZM501.6,416.32l2.78-7.26,2.59,7.26h-5.37Z"></path><polygon class="cls-2" points="542.71 423.62 529.06 423.62 529.06 399.1 522.83 399.1 522.83 429.5 542.71 429.5 542.71 423.62"></polygon><path class="cls-2" d="M572.52,421.93h9.51l2.7,7.58h6.69l-10.86-30.41h-5.41l-11.75,30.41h6.19l2.94-7.58ZM574.64,416.32l2.78-7.26,2.59,7.26h-5.37Z"></path><polygon class="cls-2" points="601.84 411.85 612.54 429.5 618.09 429.5 618.09 399.1 612.12 399.1 612.12 416.68 601.44 399.1 595.86 399.1 595.86 429.5 601.84 429.5 601.84 411.85"></polygon><path class="cls-2" d="M458.69,442.26c-1.36-.71-3.48-1.06-6.51-1.06h-8.67v30.41h6.24v-10.88h1.79c3.68,0,6.52-1.04,8.45-3.08,1.91-2.02,2.88-4.53,2.88-7.48,0-1.74-.34-3.31-1.01-4.66-.71-1.42-1.78-2.51-3.18-3.25h0ZM455.72,447.66c.54.64.81,1.51.81,2.66,0,1.39-.37,2.54-1.13,3.51-.64.82-2.34,1.28-4.79,1.28h-.85v-8.31h2.49c2.38,0,3.19.53,3.46.85h0Z"></path><path class="cls-2" d="M480.05,440.39c-3.69,0-6.74,1.45-9.07,4.31-2.26,2.78-3.4,6.72-3.4,11.7s1.15,8.93,3.4,11.71c2.33,2.87,5.38,4.32,9.07,4.32s6.74-1.45,9.07-4.32c2.27-2.78,3.41-6.73,3.41-11.71s-1.15-8.93-3.41-11.7c-2.33-2.86-5.39-4.31-9.07-4.31h0ZM484.4,464.28c-1.08,1.75-2.45,2.56-4.33,2.56s-3.24-.81-4.33-2.56c-1.19-1.92-1.79-4.57-1.79-7.85s.6-5.93,1.79-7.85c1.08-1.75,2.45-2.57,4.33-2.57s3.25.82,4.33,2.57c1.19,1.93,1.78,4.57,1.78,7.85s-.6,5.94-1.78,7.86h0Z"></path><polygon class="cls-2" points="530.59 441.21 524.69 441.21 520.91 458.44 516.82 441.21 511.22 441.21 506.99 458.47 503.31 441.21 497.15 441.21 503.66 471.61 509.37 471.61 513.85 453.33 518.2 471.61 523.91 471.61 530.59 441.21"></polygon><polygon class="cls-2" points="554.53 465.73 542.32 465.73 542.32 458.53 552.2 458.53 552.2 452.93 542.32 452.93 542.32 447.1 553.63 447.1 553.63 441.21 536.08 441.21 536.08 471.61 554.53 471.61 554.53 465.73"></polygon><path class="cls-2" d="M577.01,461.37c-.32-.6-.69-1.27-1.11-1.95-.34-.56-.64-1.01-.93-1.36.72-.46,1.32-.94,1.79-1.48.81-.92,1.45-1.97,1.9-3.11.46-1.15.68-2.37.68-3.62,0-1.55-.35-3.03-1.03-4.36-.7-1.37-1.67-2.45-2.9-3.2-1.24-.75-2.94-1.11-5.19-1.11h-9.47v30.41h6.24v-11.84h1.41c1.1,1.11,2.01,2.38,2.71,3.81l3.99,8.04h7.09l-5.19-10.24ZM567.01,446.81h2.13c1.69,0,2.29.3,2.48.43.46.33.79.71,1.03,1.19.24.48.36,1.04.36,1.69,0,.78-.16,1.49-.49,2.18-.31.63-.7,1.1-1.2,1.41-.34.21-1.03.46-2.41.46h-1.88v-7.35h0Z"></path><polygon class="cls-2" points="443.02 488.92 451.87 488.92 451.87 513.72 458.11 513.72 458.11 488.92 466.82 488.92 466.82 483.31 443.02 483.31 443.02 488.92"></polygon><polygon class="cls-2" points="478.11 500.64 487.99 500.64 487.99 495.03 478.11 495.03 478.11 489.2 489.42 489.2 489.42 483.31 471.87 483.31 471.87 513.72 490.33 513.72 490.33 507.83 478.11 507.83 478.11 500.64"></polygon><path class="cls-2" d="M513.21,483.4c-1.39-.6-3.02-.9-4.84-.9-3.76,0-6.86,1.4-9.23,4.17-2.3,2.7-3.47,6.69-3.47,11.86s1.18,9.19,3.49,11.88c2.37,2.75,5.47,4.15,9.19,4.15,1.83,0,3.46-.31,4.86-.9,1.48-.64,2.67-1.65,3.53-3.02.85-1.35,1.29-2.72,1.29-4.08v-1.6h-5.97v1.6c0,.59-.24,1.12-.74,1.64-.47.48-1.45.75-2.83.75-2.15,0-3.64-.83-4.69-2.62-1.17-1.98-1.76-4.61-1.76-7.81s.59-5.79,1.76-7.78c1.05-1.79,2.55-2.63,4.72-2.63.84,0,1.55.12,2.12.36.47.2.82.48,1.07.86.25.4.38.77.38,1.18v1.6h5.97v-1.6c0-1.32-.44-2.67-1.28-4.04-.86-1.38-2.05-2.41-3.54-3.06l-.02-.02Z"></path><polygon class="cls-2" points="539.19 495.58 530.09 495.58 530.09 483.31 523.86 483.31 523.86 513.72 530.09 513.72 530.09 501.19 539.19 501.19 539.19 513.72 545.43 513.72 545.43 483.31 539.19 483.31 539.19 495.58"></polygon><polygon class="cls-2" points="568.71 500.89 558.04 483.31 552.46 483.31 552.46 513.72 558.42 513.72 558.42 496.06 569.14 513.72 574.68 513.72 574.68 483.31 568.71 483.31 568.71 500.89"></polygon><path class="cls-2" d="M593.27,482.49c-3.69,0-6.74,1.45-9.07,4.31-2.26,2.78-3.4,6.72-3.4,11.7s1.15,8.93,3.4,11.71c2.33,2.87,5.38,4.32,9.07,4.32s6.74-1.45,9.07-4.32c2.27-2.78,3.41-6.73,3.41-11.71s-1.15-8.93-3.41-11.7c-2.33-2.86-5.39-4.31-9.07-4.31ZM597.61,506.38c-1.08,1.75-2.45,2.56-4.33,2.56s-3.24-.81-4.33-2.56c-1.19-1.92-1.79-4.57-1.79-7.85s.6-5.93,1.79-7.85c1.08-1.75,2.45-2.57,4.33-2.57s3.25.82,4.33,2.57c1.19,1.93,1.78,4.57,1.78,7.85s-.6,5.94-1.78,7.86h0Z"></path><polygon class="cls-2" points="618.1 483.31 611.87 483.31 611.87 513.72 631.74 513.72 631.74 507.83 618.1 507.83 618.1 483.31"></polygon><path class="cls-2" d="M648.39,482.49c-3.69,0-6.74,1.45-9.07,4.31-2.26,2.78-3.4,6.72-3.4,11.7s1.15,8.93,3.4,11.71c2.33,2.87,5.38,4.32,9.07,4.32s6.74-1.45,9.07-4.32c2.27-2.78,3.41-6.73,3.41-11.71s-1.15-8.93-3.41-11.7c-2.33-2.86-5.39-4.31-9.07-4.31ZM652.74,506.38c-1.08,1.75-2.45,2.56-4.33,2.56s-3.24-.81-4.33-2.56c-1.19-1.92-1.79-4.57-1.79-7.85s.6-5.93,1.79-7.85c1.08-1.75,2.45-2.57,4.33-2.57s3.25.82,4.33,2.57c1.19,1.93,1.78,4.57,1.78,7.85s-.6,5.94-1.78,7.86h0Z"></path><path class="cls-2" d="M683.38,483.38c-1.44-.59-3.05-.89-4.78-.89-2.55,0-4.81.66-6.7,1.97-1.86,1.29-3.32,3.08-4.33,5.32-1.01,2.22-1.49,5.18-1.49,9.06,0,3.41.53,6.28,1.57,8.52,1.07,2.29,2.53,4.08,4.34,5.31,1.84,1.26,4.23,1.89,7.12,1.89,2.72,0,5.59-.75,8.54-2.25l.78-.4v-14.68h-11.83v5.61h5.87v5.43c-1.37.46-2.59.68-3.64.68-2.01,0-3.46-.81-4.57-2.54-1.21-1.89-1.82-4.55-1.82-7.93s.59-6.04,1.77-7.89c1.08-1.69,2.53-2.48,4.58-2.48.77,0,1.45.12,2.03.36.54.23.97.52,1.29.9.33.39.36.67.36.86v1.6h5.97v-1.6c0-1.34-.46-2.68-1.39-3.98-.91-1.28-2.15-2.25-3.66-2.86h0Z"></path><polygon class="cls-2" points="710.43 483.31 704.83 493.01 699.17 483.31 691.94 483.31 701.4 499.7 701.4 513.72 707.64 513.72 707.64 499.7 717 483.31 710.43 483.31"></polygon><polygon class="cls-2" points="458.75 424.23 454.83 424.23 454.83 404.94 458.75 404.94 458.75 399.1 454.83 399.1 448.59 399.1 444.17 399.1 444.17 404.94 448.59 404.94 448.59 424.23 444.17 424.23 444.17 430.09 458.75 430.09 458.75 424.23"></polygon><polygon class="cls-2" points="561.04 424.23 557.12 424.23 557.12 404.94 561.04 404.94 561.04 399.1 557.12 399.1 550.88 399.1 546.46 399.1 546.46 404.94 550.88 404.94 550.88 424.23 546.46 424.23 546.46 430.09 561.04 430.09 561.04 424.23"></polygon></svg>