<svg xmlns="http://www.w3.org/2000/svg" id="Livello_1" viewBox="0 0 720 720"><defs><style>.cls-1{fill:none;}.cls-2{fill:#010101;}.cls-3{fill:#727070;}</style></defs><rect class="cls-1" width="720" height="720"></rect><path class="cls-2" d="M38.35,397.94H3v-76h34.71c8.63,0,14.87,1.37,19.1,4.2,5.56,3.71,8.39,9.18,8.39,16.25,0,5.79-2.27,10.76-6.77,14.8,2.35,1.25,4.34,3.03,5.91,5.34,2.21,3.23,3.33,7.24,3.33,11.92,0,3.29-.5,6.34-1.48,9.05-1,2.76-2.44,5.12-4.26,7-1.23,1.34-3.06,2.68-5.4,3.93-2.29,1.23-4.61,2.13-6.87,2.68-2.29.56-5.99.82-11.3.82h0ZM6.79,394.15h31.56c4.94,0,8.44-.24,10.41-.72,1.95-.47,3.96-1.26,5.97-2.34,1.96-1.05,3.45-2.13,4.44-3.2,1.48-1.52,2.63-3.43,3.45-5.69.84-2.3,1.26-4.91,1.26-7.76,0-3.9-.89-7.19-2.66-9.78-1.76-2.57-4.06-4.25-7.04-5.12l-3.77-1.11,3.22-2.26c5.24-3.67,7.79-8.18,7.79-13.78s-2.19-10.1-6.7-13.1c-3.54-2.37-9.25-3.57-17-3.57H6.79v68.43h0ZM34.78,381.41h-10.76v-17.47h10.76c4.87,0,7.96.7,9.72,2.19,1.81,1.53,2.72,3.69,2.72,6.42s-.93,4.95-2.75,6.55c-1.78,1.55-4.95,2.31-9.7,2.31h0ZM27.81,377.62h6.97c4.91,0,6.62-.86,7.21-1.37.98-.86,1.46-2.07,1.46-3.7s-.45-2.74-1.39-3.53c-.46-.39-2.09-1.29-7.28-1.29h-6.97v9.9ZM34.15,354.74h-10.12v-16.53h8.84c4.39,0,5.87.3,6.6.54,1.67.52,3.04,1.5,4.05,2.92,1.01,1.41,1.52,3.04,1.52,4.87,0,2.41-.88,4.42-2.62,5.97-1.7,1.51-4.41,2.25-8.27,2.25h0ZM27.81,350.95h6.33c3.56,0,5.1-.7,5.76-1.29.92-.82,1.35-1.82,1.35-3.14,0-1.03-.27-1.9-.81-2.65-.54-.74-1.23-1.24-2.11-1.51-.35-.11-1.57-.36-5.47-.36h-5.05s0,8.96,0,8.96Z"></path><path class="cls-2" d="M144.12,397.94h-25.74l-2.51-9.46h-18.75l-2.47,9.46h-25.33l24.96-76h24.86l24.97,76h0ZM121.3,394.15h17.59l-22.48-68.43h-19.38l-22.48,68.43h17.17l2.47-9.46h24.59s2.51,9.46,2.51,9.46ZM116,373.65h-18.77l9.23-35.54,9.54,35.54ZM102.13,369.86h8.93l-4.54-16.92-4.39,16.92h0Z"></path><path class="cls-2" d="M177.84,399.93c-4.75,0-9.28-.68-13.47-2.03-4.28-1.38-7.85-3.39-10.65-5.99-2.79-2.59-4.94-5.65-6.38-9.06-1.01-2.41-1.72-5.4-2.1-8.88l-.23-2.1h24.53l.32,1.5c.39,1.85,1.19,3.21,2.45,4.16,1.27.97,3.39,1.46,6.3,1.46,3.06,0,4.46-.63,5.1-1.15.33-.29.73-.76.73-1.88,0-.97-.25-1.68-.77-2.22-.15-.16-1.19-1.03-6.28-2.37l-7.6-2.04c-4.07-1.05-7.96-2.55-11.54-4.43-3.77-1.98-6.66-4.59-8.6-7.76-1.94-3.18-2.93-7.04-2.93-11.49s.87-8.25,2.58-11.65c1.72-3.41,4.06-6.2,6.96-8.3,2.85-2.06,6.07-3.53,9.57-4.39,3.41-.83,6.97-1.25,10.57-1.25,4.28,0,8.28.48,11.87,1.43,3.65.97,6.63,2.27,8.85,3.88,2.21,1.6,4.04,3.47,5.45,5.55,1.36,2.03,2.43,4.12,3.2,6.23.75,2.07,1.36,4.53,1.8,7.28l.35,2.19h-24.39l-.34-1.46c-.38-1.66-1.07-2.86-2.07-3.63-1.01-.78-2.59-1.17-4.67-1.17s-3.5.4-4.45,1.2c-.54.46-.78,1.01-.78,1.78s.27,1.14.5,1.37c.37.36,1.73,1.31,6.54,2.58l8.45,2.24c8.18,2.15,14.05,5.3,17.45,9.38,3.43,4.12,5.17,8.94,5.17,14.35,0,4.26-.89,8.2-2.64,11.72-1.75,3.5-3.94,6.32-6.53,8.38-2.56,2.04-5.88,3.67-9.88,4.84-3.93,1.16-8.13,1.74-12.46,1.74h.01ZM149.29,375.64c.36,2.22.88,4.14,1.54,5.73,1.23,2.92,3.06,5.53,5.46,7.76,2.39,2.22,5.49,3.96,9.23,5.16,3.81,1.23,7.95,1.85,12.31,1.85,3.98,0,7.81-.54,11.39-1.59,3.53-1.03,6.41-2.44,8.58-4.17,2.15-1.71,4-4.1,5.5-7.11,1.49-2.99,2.25-6.36,2.25-10.03,0-4.56-1.41-8.46-4.29-11.92-2.88-3.45-8.1-6.2-15.5-8.14l-8.46-2.24c-4.28-1.14-6.88-2.25-8.19-3.5-1.09-1.04-1.68-2.46-1.68-4.1,0-1.88.74-3.49,2.13-4.67,1.67-1.39,3.98-2.09,6.89-2.09s5.29.66,6.98,1.96c1.36,1.05,2.37,2.49,3.02,4.31h16.97c-.34-1.64-.75-3.11-1.22-4.4-.66-1.82-1.6-3.64-2.78-5.42-1.15-1.71-2.67-3.26-4.52-4.59-1.84-1.33-4.4-2.44-7.6-3.29-3.27-.87-6.93-1.31-10.89-1.31-3.3,0-6.56.38-9.68,1.14-3.02.74-5.79,2.01-8.25,3.78-2.41,1.74-4.36,4.06-5.79,6.93-1.45,2.87-2.17,6.22-2.17,9.95s.8,6.94,2.37,9.51c1.58,2.58,3.98,4.73,7.13,6.38,3.33,1.75,6.94,3.14,10.75,4.12l7.6,2.04c5.63,1.48,7.24,2.6,8.02,3.39,1.22,1.26,1.84,2.9,1.84,4.85s-.72,3.63-2.09,4.78c-1.66,1.37-4.12,2.04-7.53,2.04-3.81,0-6.62-.73-8.6-2.23-1.6-1.22-2.76-2.86-3.45-4.89h-17.28Z"></path><path class="cls-2" d="M257.79,397.94h-25.45v-53.21h-19.61v-22.8h64.66v22.8h-19.61v53.2h0ZM236.13,394.15h17.88v-53.2h19.61v-15.23h-57.09v15.23h19.61v53.2h0Z"></path><path class="cls-2" d="M343.26,397.94h-59.04v-76h57.72v20.81h-32.9v6.36h27.93v20.16h-27.93v7.56h34.23v21.11ZM288.01,394.15h51.46v-13.53h-34.23v-15.13h27.93v-12.59h-27.93v-13.94h32.9v-13.24h-50.14v68.43Z"></path><path class="cls-2" d="M407.15,397.94h-55.34v-76h25.45v53.35h29.89v22.65h0ZM355.6,394.15h47.77v-15.07h-29.89v-53.35h-17.88v68.43Z"></path><path class="cls-2" d="M469.54,397.94h-55.34v-76h25.45v53.35h29.89v22.65h0ZM417.99,394.15h47.77v-15.07h-29.89v-53.35h-17.88v68.43Z"></path><path class="cls-2" d="M502.3,397.94h-25.54v-76h25.54v76h0ZM480.56,394.15h17.96v-68.43h-17.96v68.43Z"></path><path class="cls-3" d="M514.67,396.04v-72.21h21.76v24.43h20.38v-24.43h21.8v72.21h-21.8v-27.97h-20.38v27.97s-21.76,0-21.76,0Z"></path><path class="cls-3" d="M588.99,323.83h60.88v19.01h-19.61v53.2h-21.66v-53.2h-19.61v-19.01Z"></path><path class="cls-3" d="M715.26,344.73h-20.66c-.48-2.09-1.41-3.66-2.76-4.71s-3.29-1.57-5.83-1.57-4.36.55-5.67,1.64c-.97.83-1.46,1.91-1.46,3.23,0,1.13.36,2.04,1.09,2.74,1.03.99,3.49,2.01,7.36,3.04l8.46,2.24c7.83,2.05,13.32,4.98,16.47,8.76,3.16,3.78,4.73,8.16,4.73,13.14,0,3.98-.82,7.61-2.45,10.87-1.63,3.27-3.63,5.85-6.01,7.74-2.38,1.89-5.46,3.39-9.23,4.5-3.78,1.11-7.76,1.66-11.93,1.66-4.57,0-8.87-.64-12.89-1.94-4.02-1.29-7.34-3.15-9.94-5.57-2.61-2.42-4.58-5.22-5.92-8.41-.95-2.25-1.6-5.04-1.97-8.36h20.89c.48,2.29,1.54,4.05,3.16,5.28,1.62,1.23,4.1,1.84,7.45,1.84,2.92,0,5.02-.53,6.3-1.59.95-.8,1.42-1.91,1.42-3.33s-.44-2.64-1.3-3.53c-.87-.89-3.25-1.86-7.15-2.89l-7.59-2.04c-3.96-1.03-7.68-2.45-11.15-4.28-3.47-1.82-6.09-4.18-7.86-7.07-1.77-2.89-2.65-6.38-2.65-10.5s.8-7.65,2.38-10.8,3.71-5.69,6.38-7.62,5.63-3.29,8.91-4.08c3.27-.8,6.65-1.19,10.12-1.19,4.14,0,7.93.46,11.38,1.37,3.44.91,6.18,2.11,8.23,3.59,2.04,1.48,3.71,3.17,4.98,5.08,1.28,1.91,2.27,3.85,2.99,5.82s1.29,4.29,1.72,6.94v.02Z"></path></svg>