<svg xmlns="http://www.w3.org/2000/svg" id="Livello_1" viewBox="0 0 720 720"><defs><style>.cls-1{fill:none;}.cls-2{fill:#727070;}</style></defs><rect class="cls-1" y="0" width="720" height="720"></rect><path d="M211.41,319.97h21.72c.24,3.2.45,6.1.76,10.25,7.4-8.17,15.71-13,26.19-12.91,10.65.09,19.43,3.82,25.15,13.7,9.24-11.62,20.75-15.6,34.75-12.86,12.03,2.35,20.81,9.14,21.45,21.07,1.17,21.9.34,43.9.34,66.22h-22.64c-.13-2.48-.33-4.73-.34-6.97-.03-13.56,0-27.12-.04-40.69,0-2.96-.12-5.94-.46-8.88-.92-8.17-4.48-11.95-11.65-12.69-8.46-.86-14.45,2.7-16.49,10.55-1.05,4.04-1.37,8.36-1.43,12.56-.17,13.13-.06,26.28-.06,39.42v6.64h-23.8v-16.06c0-12.29.12-24.59-.08-36.88-.18-11.26-3.91-15.85-12.68-16.28-9.24-.47-16.49,5.88-16.91,16.01-.55,13.33-.25,26.7-.3,40.05-.02,4.2,0,8.41,0,13.09h-23.48v-85.34h0Z"></path><path d="M110.93,326.77h-24.51c-.41-.5-1-.91-1.16-1.47-3.39-11.54-11.43-17.61-23.05-18.78-11.95-1.2-22.18,2.8-28.05,13.56-9.24,16.94-9.5,34.58-.57,51.74,5.87,11.29,17.4,16.14,30.83,14.14,12.1-1.81,18.16-9.89,21.15-20.95.38-1.41.7-2.84,1.13-4.63h24.5c1.03,21.71-17.02,42.99-39.77,47.02C31.05,414.57-1.54,387.04,1.41,341.04c.28-4.41,1.01-8.86,2.08-13.16,9.11-37.15,49.56-55.21,83.41-37.21,14.11,7.5,21.68,19.55,24.03,36.1Z"></path><path d="M370.44,405.52h-26.51c15.08-39.72,29.9-78.77,44.87-118.15h27.22c14.58,38.94,29.25,78.08,44.18,117.96h-27.18c-2.88-8.27-5.85-16.79-8.91-25.57h-44.37c-3.03,8.4-6.1,16.89-9.3,25.76ZM417.13,359.46c-5.03-14.5-9.71-28.02-14.4-41.53-.44.09-.87.19-1.31.28-4.81,13.61-9.63,27.22-14.58,41.25h30.29Z"></path><path d="M485.16,435.58h-23.92v-115.5h22.03c.21,2.8.41,5.64.72,9.81,5.59-7.01,12.05-10.89,20.11-12.15,16.44-2.57,31.96,4.96,39.03,19.99,7.4,15.75,7.8,32.01,1.13,48.13-10.79,26.09-43.47,28.5-59.07,10.08v39.64h-.01ZM525.45,362.13c0-4.55-1.75-9.86-3.6-14.72-3.14-8.28-10-12.54-18.24-12.13-8.55.42-14.34,4.86-17.17,12.81-3.37,9.46-3.53,19.11-.23,28.63,3.11,8.97,9.61,13.45,18.7,13.32,9-.13,15.39-4.87,18.08-14.07,1.23-4.21,2.44-8.06,2.44-13.84h0Z"></path><path d="M114.92,365.24c-.12-38.56,35.07-59.79,67.18-42.65,16.5,8.8,22.32,23.82,21.83,41.49-.97,34.45-32.92,54.16-64.55,39.98-17.67-7.93-23.98-22.87-24.45-38.82h0ZM137.92,362.58c0,5.86,1.7,10.37,3.35,15.1,2.89,8.27,9.36,12.38,18.08,12.38s15.19-4.05,18.27-12.2c3.82-10.08,3.76-20.38-.07-30.45-3.05-8.04-9.74-12.28-18.35-12.13-8.48.15-13.41,4.65-17.73,11.99-2.78,4.73-2.71,9.82-3.56,15.3h0Z"></path><path d="M710.48,304.94c-1.45,0-2.81-.36-4.08-1.06s-2.29-1.72-3.05-3.01-1.15-2.69-1.15-4.2.37-2.86,1.1-4.15,1.75-2.3,3.05-3.04,2.67-1.1,4.13-1.1,2.84.37,4.13,1.1,2.3,1.75,3.05,3.04,1.11,2.67,1.11,4.15-.39,2.9-1.15,4.2-1.79,2.3-3.06,3.01-2.63,1.06-4.08,1.06ZM710.49,303.68c1.23,0,2.39-.3,3.47-.9,1.07-.6,1.94-1.45,2.59-2.54.65-1.09.97-2.29.96-3.57,0-1.25-.31-2.43-.93-3.53s-1.48-1.96-2.58-2.57c-1.09-.63-2.27-.93-3.51-.93s-2.41.31-3.51.93c-1.09.63-1.96,1.48-2.58,2.57s-.93,2.27-.93,3.53.33,2.47.97,3.57,1.51,1.95,2.58,2.54c1.07.6,2.24.9,3.47.9h0ZM708.92,301.81h-1.61v-10.23h3.25c.79,0,1.39.12,1.8.35.41.23.73.57.96.99s.35.89.35,1.4c0,.59-.17,1.14-.5,1.68s-.83.94-1.51,1.23c.36.22.74.71,1.14,1.45l1.69,3.14h-1.84l-1.4-2.66-.33-.64c-.38-.67-.65-.99-.81-.99h-1.2v4.29h0ZM708.92,296.28h1.12c.74,0,1.25-.2,1.54-.59s.44-.81.44-1.29c0-.29-.06-.55-.18-.78s-.29-.43-.52-.58-.62-.23-1.18-.23h-1.22v3.47Z"></path><path class="cls-2" d="M650.54,379.61c8.66-8.05,7.43-19.56-2.76-25.56-8.02-4.73-27.54-16.4-29.27-17.53-.83-.2-.55-1.73.57-1.46,15.12,4.63,30.32,9.01,45.33,13.97,13.53,4.46,27.7,7.27,41.97,13.74,2.05.92,2.62,3.57,1.15,5.27-1.33,1.52-2.38,2.7-3.7,3.46-36.1,20.92-72.29,41.72-108.47,62.52,0,0,0,0-.02,0-1.26.7-3.46.8-3.82-.6-.06-.06,41.34-37.4,59.03-53.83h0Z"></path><path class="cls-2" d="M625.8,328.84c-11.17-3.87-20.76,2.62-21.28,14.44-.41,9.3-1.56,32.02-1.74,34.08.22.82-1.27,1.29-1.55.19-3-15.53-6.27-31.01-8.94-46.59-2.4-14.05-6.57-27.87-7.56-43.51-.14-2.24,1.92-3.99,4.11-3.49,1.97.46,3.51.83,4.79,1.64,35.43,22.07,70.77,44.26,106.12,66.45,0,0,0,0,.02,0,1.2.78,2.33,2.67,1.27,3.66-.02.08-52.43-18.96-75.24-26.87h0Z"></path><path class="cls-2" d="M594.11,378.27c2.63,11.52,13.22,16.21,23.52,10.39,8.11-4.58,27.98-15.65,29.82-16.58.59-.63,1.77.4.98,1.21-11.57,10.78-22.97,21.75-34.77,32.27-10.63,9.49-20.15,20.35-32.89,29.47-1.83,1.31-4.4.49-5.14-1.64-.66-1.91-1.14-3.42-1.15-4.93-.07-41.73.03-83.46.1-125.2v-.02c.03-1.44,1.03-3.4,2.43-3.02.08-.02,11.71,54.5,17.09,78.04h0Z"></path></svg>