<svg xmlns="http://www.w3.org/2000/svg" viewBox="0 0 800 800"><defs><style>      .cls-1, .cls-2, .cls-3 {        fill: #eaddbb;      }      .cls-4, .cls-5, .cls-6 {        opacity: .2;      }      .cls-4, .cls-7, .cls-8, .cls-9 {        fill: #2c363b;        font-family: Poppins-Regular, Poppins;        font-size: 13.9px;      }      .cls-4, .cls-9 {        letter-spacing: 0em;      }      .cls-5, .cls-10 {        fill: #3970b3;      }      .cls-11 {        fill: #b3c841;      }      .cls-7 {        letter-spacing: 0em;      }      .cls-8 {        letter-spacing: 0em;      }      .cls-2 {        fill-rule: evenodd;      }      .cls-3 {        opacity: .5;      }    </style></defs><g><g id="Livello_1"><text class="cls-4" transform="translate(239.7 780.3)"><tspan x="0" y="0">Charging Station</tspan></text><g class="cls-6"><rect class="cls-10" x="242.3" y="630.6" width="114.9" height="113" rx="20" ry="20"></rect><path class="cls-2" d="M344.1,663.6v-4.6c0-1.5-1.2-2.7-2.7-2.7s-2.7,1.2-2.7,2.7v4.5h-5.3v-4.5c0-1.5-1.2-2.7-2.7-2.7s-2.7,1.2-2.7,2.7v4.6c-1,.4-1.8,1.4-1.8,2.5v8.9c0,2.1.8,4.2,2.3,5.7,1.3,1.3,3,2.1,4.8,2.3v13.4c0,1.2-.5,2.3-1.3,3.1-.8.8-2,1.3-3.1,1.3h-8v-49c0-1.7-.7-3.2-1.8-4.4-1.2-1.2-2.8-1.8-4.4-1.8h-35.6c-1.7,0-3.2.7-4.4,1.8-1.2,1.2-1.8,2.8-1.8,4.4v65h-.9c-1.5,0-2.7,1.2-2.7,2.7s1.2,2.7,2.7,2.7h51.6c1.5,0,2.7-1.2,2.7-2.7s-1.2-2.7-2.7-2.7h-2.7v-10.7h8c2.6,0,5.1-1,6.9-2.9,1.8-1.8,2.9-4.3,2.9-6.9v-13.4c1.8-.2,3.5-1,4.8-2.3,1.5-1.5,2.3-3.5,2.3-5.7v-8.9c0-1.2-.7-2.1-1.8-2.5ZM304.2,696.1l-6.8,10.7c-.8,1.2-2.4,1.6-3.7.8-1.2-.8-1.6-2.4-.8-3.7l4.2-6.6h-5.1c-1,0-1.9-.5-2.3-1.4-.5-.9-.4-1.9,0-2.7l6.8-10.7h0c.8-1.2,2.4-1.6,3.7-.8,1.2.8,1.6,2.4.8,3.7l-4.2,6.6h5.1c1,0,1.9.5,2.3,1.4.5.9.4,1.9,0,2.7ZM312.1,671.5c0,1.5-1.2,2.7-2.7,2.7h-24.9c-1.5,0-2.7-1.2-2.7-2.7v-14.2c0-1.5,1.2-2.7,2.7-2.7h24.9c1.5,0,2.7,1.2,2.7,2.7v14.2Z"></path></g><text class="cls-9" transform="translate(439.7 177.9)"><tspan x="0" y="0">Photovoltaic Panels</tspan></text><g><rect class="cls-10" x="451.3" y="29.1" width="115" height="113" rx="20" ry="20"></rect><path class="cls-1" d="M543.8,73.1c.9,0,1.6.6,1.9,1.5l2.6,11.6c.3,1.2-.7,2.3-1.9,2.3h-19.9c-1,0-1.8-.8-1.9-1.8l-.9-11.6c0-1.2.8-2,1.9-2h18.2ZM498.7,88.5h20c1.2,0,2-1,1.9-2l-.9-11.6c0-1-.9-1.8-1.9-1.8h-18.2c-1,0-1.8.8-1.9,1.8l-.9,11.6c0,1.1.9,2,1.9,2ZM471.1,88.5h19.9c1,0,1.8-.8,1.9-1.8l.9-11.6c0-1.2-.8-2-1.9-2h-18.2c-.9,0-1.6.6-1.9,1.5l-2.6,11.6c-.2,1.2.7,2.3,1.9,2.3ZM475.4,69.2h17c1,0,1.8-.8,1.9-1.8l.9-11.6c0-1.2-.8-2-1.9-2h-15.3c-.9,0-1.6.6-1.9,1.5l-2.6,11.6c-.3,1.2.7,2.3,1.9,2.3ZM500.1,69.2h17.1c1.2,0,2-1,1.9-2l-.9-11.6c0-1-.9-1.8-1.9-1.8h-15.4c-1,0-1.8.8-1.9,1.8l-.9,11.6c0,1.1.9,2,1.9,2ZM525,69.2h17c1.3,0,2.1-1.2,1.9-2.3l-2.6-11.6c-.2-.9-1-1.5-1.9-1.5h-15.3c-1.2,0-2,1-1.9,2l.9,11.6c0,1.1.9,1.8,1.9,1.8ZM547.3,92.4h-77.2c-.6,0-1,.4-1,1v2.9c0,1.1.9,1.9,1.9,1.9h34.7l-.9,13.5h-6.4c-2.1,0-3.9,1.7-3.9,3.9v1c0,.6.4,1,1,1h26.2c.6,0,1-.4,1-1v-1c0-2.1-1.7-3.9-3.9-3.9h-6.4l-.9-13.5h34.8c1.1,0,1.9-.9,1.9-1.9v-2.9c0-.6-.4-1-1-1Z"></path></g><g class="cls-6"><text class="cls-9" transform="translate(248.4 378.2)"><tspan x="0" y="0">Battery Module</tspan></text></g><g class="cls-6"><rect class="cls-10" x="244.1" y="229.1" width="115" height="113" rx="20" ry="20"></rect><path class="cls-2" d="M272.3,281c.3.2.5.5.8.7,2.5,1.8,6.5,3.4,11.5,4.5v16.8c-4.4-1-7.9-2.3-10.1-4-1.3-1-2.2-2.1-2.2-3.2v-14.7ZM272.3,300.1c.3.2.5.5.8.7,2.5,1.8,6.5,3.4,11.5,4.5v4.7c0,2.1,1.7,3.9,3.9,3.9h21.9c2.1,0,3.9-1.7,3.9-3.9v-4.7c5-1,9-2.6,11.5-4.5.3-.2.6-.5.8-.7v14.7c0,.8-.4,1.6-1.1,2.3-.9.9-2.1,1.7-3.7,2.5-5,2.4-13.1,3.9-22.3,3.9s-17.3-1.5-22.3-3.9c-1.6-.7-2.8-1.6-3.7-2.5-.7-.7-1.1-1.5-1.1-2.3v-14.7ZM326.5,295.7c0,1.2-.8,2.2-2.2,3.2-2.2,1.6-5.7,3-10.1,4v-16.8c5-1,9-2.6,11.5-4.5.3-.2.6-.5.8-.7v14.7ZM315.7,266.8c1.2,5.4,4.9,9.8,9.8,12.1-.3.4-.7.7-1.2,1-2.2,1.6-5.7,3-10.1,4v-15.1c0-.6-.1-1.1-.4-1.6.6-.1,1.3-.3,1.9-.4h0ZM310.3,267.2c.9,0,1.6.7,1.6,1.6v41.2c0,.9-.7,1.6-1.6,1.6h-21.9c-.9,0-1.6-.7-1.6-1.6v-41.2c0-.9.7-1.6,1.6-1.6h21.9ZM303.1,306.5h-7.4c-.6,0-1.1.5-1.1,1.1s.5,1.1,1.1,1.1h7.4c.6,0,1.1-.5,1.1-1.1s-.5-1.1-1.1-1.1ZM298.2,273.7h-2.6c-.6,0-1.1.5-1.1,1.1s.5,1.1,1.1,1.1h2.6v2.6c0,.6.5,1.1,1.1,1.1s1.1-.5,1.1-1.1v-2.6h2.6c.6,0,1.1-.5,1.1-1.1s-.5-1.1-1.1-1.1h-2.6v-2.6c0-.6-.5-1.1-1.1-1.1s-1.1.5-1.1,1.1v2.6ZM303.3,264.9h-7.9v-4.1h7.9v4.1ZM272.3,262c.3.3.7.6,1.1.9,2.5,1.8,6.6,3.3,11.5,4.3-.2.5-.4,1-.4,1.6v15.1c-4.4-1-7.9-2.3-10.1-4-1.3-1-2.2-2.1-2.2-3.2v-14.7ZM319.3,251.9c-2.5,3-4,6.9-4,11.1s0,1,0,1.5c-1.1.3-2.3.5-3.5.7-.5-.2-1-.3-1.6-.3h-4.7v-5.3c0-.6-.5-1.1-1.1-1.1h-10.2c-.6,0-1.1.5-1.1,1.1v5.3h-4.7c-.6,0-1.1.1-1.6.3-5.3-.9-9.6-2.4-12.2-4.3-1.5-1-2.4-2.2-2.4-3.4s.4-1.6,1.1-2.3c.9-.9,2.1-1.7,3.7-2.5,5-2.4,13.1-3.9,22.3-3.9s14.9,1.1,19.9,2.9ZM332.7,247.8c8.4,0,15.2,6.8,15.2,15.2s-6.8,15.2-15.2,15.2-15.2-6.8-15.2-15.2,6.8-15.2,15.2-15.2ZM333.1,261.2c-.1,0-.2,0-.3-.1s-.1-.2,0-.3c.2-1.1.7-3.7,1.1-5.7,0-.2,0-.4-.3-.5-.2,0-.4,0-.5.2-1.5,2.9-4.1,7.7-5,9.3,0,.1,0,.3,0,.4,0,.1.2.2.3.2h3.8c.1,0,.2,0,.3.1,0,0,.1.2,0,.3-.2,1.1-.7,3.7-1.1,5.7,0,.2,0,.4.3.5.2,0,.4,0,.5-.2,1.6-2.9,4.1-7.7,5-9.3,0-.1,0-.3,0-.4,0-.1-.2-.2-.3-.2h-3.8Z"></path></g><g class="cls-6"><text class="cls-9" transform="translate(27.3 177.9)"><tspan x="0" y="0">Artificial Intelligence</tspan></text><g><path class="cls-11" d="M167.7,68.7c2.5,0,4.6-2.1,4.6-4.6s-2.1-4.6-4.6-4.6h-9.2v-6.9h9.2c2.5,0,4.6-2.1,4.6-4.6s-2.1-4.6-4.6-4.6h-9.6c-1.8-9-8.9-16.1-17.9-17.9v-9.6c0-2.5-2.1-4.6-4.6-4.6s-4.6,2.1-4.6,4.6v9.2h-6.9v-9.2c0-2.5-2.1-4.6-4.6-4.6s-4.6,2.1-4.6,4.6v9.2h-6.9v-9.2c0-2.5-2.1-4.6-4.6-4.6s-4.6,2.1-4.6,4.6v9.2h-6.9v-9.2c0-2.5-2.1-4.6-4.6-4.6s-4.6,2.1-4.6,4.6v9.2h-6.9v-9.2c0-2.5-2.1-4.6-4.6-4.6s-4.6,2.1-4.6,4.6v9.6c-9,1.8-16.1,8.9-17.9,17.9h-9.6c-2.5,0-4.6,2.1-4.6,4.6s2.1,4.6,4.6,4.6h9.2v6.9h-9.2c-2.5,0-4.6,2.1-4.6,4.6s2.1,4.6,4.6,4.6h9.2v6.9h-9.2c-2.5,0-4.6,2.1-4.6,4.6s2.1,4.6,4.6,4.6h9.2v6.9h-9.2c-2.5,0-4.6,2.1-4.6,4.6s2.1,4.6,4.6,4.6h9.2v6.9h-9.2c-2.5,0-4.6,2.1-4.6,4.6s2.1,4.6,4.6,4.6h9.6c1.8,9,8.9,16.1,17.9,17.9v9.6c0,2.5,2.1,4.6,4.6,4.6s4.6-2.1,4.6-4.6v-9.2h6.9v9.2c0,2.5,2.1,4.6,4.6,4.6s4.6-2.1,4.6-4.6v-9.2h6.9v9.2c0,2.5,2.1,4.6,4.6,4.6s4.6-2.1,4.6-4.6v-9.2h6.9v9.2c0,2.5,2.1,4.6,4.6,4.6s4.6-2.1,4.6-4.6v-9.2h6.9v9.2c0,2.5,2.1,4.6,4.6,4.6s4.6-2.1,4.6-4.6v-9.6c9-1.8,16.1-8.9,17.9-17.9h9.6c2.5,0,4.6-2.1,4.6-4.6s-2.1-4.6-4.6-4.6h-9.2v-6.9h9.2c2.5,0,4.6-2.1,4.6-4.6s-2.1-4.6-4.6-4.6h-13.7c-2.5,0-4.6,2.1-4.6,4.6v16.2c0,7.5-6.1,13.6-13.6,13.6h-64.5c-7.5,0-13.6-6.1-13.6-13.6V48c0-7.5,6.1-13.6,13.6-13.6h64.5c7.5,0,13.6,6.1,13.6,13.6v32.2c0,2.5,2.1,4.6,4.6,4.6h13.7c2.5,0,4.6-2.1,4.6-4.6s-2.1-4.6-4.6-4.6h-9.2v-6.9h9.2Z"></path><polygon class="cls-10" points="92.6 84.2 101.3 84.2 97 71.6 92.6 84.2"></polygon><path class="cls-10" d="M135.6,43.5h-64.1c-2.5,0-4.6,2.1-4.6,4.6v64.1c0,2.5,2.1,4.6,4.6,4.6h64.1c2.5,0,4.6-2.1,4.6-4.6V48.1c0-2.5-2.1-4.6-4.6-4.6ZM114,97.1c-.2.2-.4.3-.7.3h-6.4c-.7,0-1.4-.4-1.7-1.1l-1.8-4.7h-12.9l-1.8,4.8c-.3.7-.9,1.1-1.7,1.1h-6.4c-.3,0-.5-.1-.7-.3-.2-.2-.3-.4-.3-.7,0-.2,0-.3,0-.5l11.5-31.6c.2-.9,1.1-1.5,2-1.4h7.7c.9,0,1.7.5,2,1.4l11.5,31.6c0,.2,0,.3,0,.5,0,.2,0,.5-.2.6ZM127.5,96.2c0,.3-.1.6-.3.9-.2.2-.5.4-.9.4h-7.1c-.7,0-1.2-.6-1.2-1.2v-32c0-.3.1-.7.4-.9.2-.2.5-.3.9-.3h7.1c.3,0,.6.1.9.3.2.2.4.6.3.9v32Z"></path></g></g><rect class="cls-10" x="657.7" y="429.7" width="115" height="113" rx="20" ry="20"></rect><text class="cls-7" transform="translate(687.5 578.4)"><tspan x="0" y="0">Cabling</tspan></text><g><path class="cls-1" d="M709,470h-1.6v-6.2c0-.9-.7-1.5-1.5-1.5h-1.6v-10.9c0-2.6-2.1-4.6-4.6-4.6h0c-2.6,0-4.6,2.1-4.6,4.6v10.9h-1.6c-.9,0-1.5.7-1.5,1.5v6.2h-1.6c-.9,0-1.5.7-1.5,1.5v20.2c0,.3,0,.6.3.9l2.8,4.3v5.7c0,.9.7,1.5,1.5,1.5h1.6v20.2c0,.9.7,1.5,1.5,1.5h6.2c.9,0,1.5-.7,1.5-1.5v-20.2h1.6c.9,0,1.5-.7,1.5-1.5v-5.7l2.8-4.3c.2-.3.3-.6.3-.9v-20.2c0-.9-.7-1.5-1.5-1.5ZM698.1,451.4c0-.9.7-1.5,1.5-1.5h0c.9,0,1.5.7,1.5,1.5v10.9h-3.1v-10.9ZM695,465.3h9.3v4.7h-9.3v-4.7ZM691.9,473.1h15.5v4.7h-15.5v-4.7ZM701.2,522.8h-3.1v-18.6h3.1v18.6ZM707.4,491.3l-2.8,4.3c-.2.3-.3.6-.3.9v4.7h-9.3v-4.7c0-.3,0-.6-.3-.9l-2.8-4.3v-10.4h15.5v10.4Z"></path><path class="cls-1" d="M741.3,492.3l-4.3-5.8v-7.2c0-.9-.7-1.5-1.5-1.5h-1.6v-29.5c0-.9-.7-1.5-1.5-1.5h-6.2c-.9,0-1.5.7-1.5,1.5v29.5h-1.6c-.9,0-1.5.7-1.5,1.5v7.2l-4.3,5.8c-.2.3-.3.6-.3.9v20.2c0,.9.7,1.5,1.5,1.5h1.6v9.3c0,.9.7,1.5,1.5,1.5h15.5c.9,0,1.5-.7,1.5-1.5v-9.3h1.6c.9,0,1.5-.7,1.5-1.5v-20.2c0-.3-.1-.7-.3-.9ZM727.6,449.8h3.1v27.9h-3.1v-27.9ZM724.5,480.9h9.3v4.7h-9.3v-4.7ZM722.9,515h4.7v7.8h-4.7v-7.8ZM735.4,522.8h-4.7v-7.8h4.7v7.8ZM738.5,511.9h-18.6v-18.1l3.9-5.2h10.9l3.9,5.2v18.1Z"></path><path class="cls-1" d="M724.5,494.8c-.9,0-1.5.7-1.5,1.5v7.8c0,.9.7,1.5,1.5,1.5h9.3c.9,0,1.5-.7,1.5-1.5v-7.8c0-.9-.7-1.5-1.5-1.5h-9.3ZM732.3,502.6h-6.2v-4.7h6.2v4.7Z"></path></g><g class="cls-6"><text class="cls-8" transform="translate(674.2 780.6)"><tspan x="0" y="0">Third-Party</tspan></text></g><g class="cls-6"><text class="cls-9" transform="translate(658 176.4)"><tspan x="0" y="0">Electrical Panel</tspan></text><g><rect class="cls-10" x="653.9" y="25.5" width="115" height="113" rx="20" ry="20"></rect><path class="cls-1" d="M697,61.5h35.9c1,0,1.8-.8,1.8-1.8h0v-12.6c0-1-.8-1.8-1.8-1.8h-35.9c-1,0-1.8.8-1.8,1.8h0v12.6c0,1,.8,1.8,1.8,1.8h0ZM698.8,48.9h32.3v9h-32.3v-9ZM682.6,110v12.6c0,1,.8,1.8,1.8,1.8h57.5c1,0,1.8-.8,1.8-1.8h0V39.9c0-1-.8-1.8-1.8-1.8h-57.5c-1,0-1.8.8-1.8,1.8h0v12.6c-2,0-3.6,1.6-3.6,3.6v7.2c0,2,1.6,3.6,3.6,3.6v28.7c-2,0-3.6,1.6-3.6,3.6v7.2c0,2,1.6,3.6,3.6,3.6ZM682.6,56.1h3.6v7.2s-3.6,0-3.6,0v-7.2ZM686.2,66.9c2,0,3.6-1.6,3.6-3.6v-7.2c0-2-1.6-3.6-3.6-3.6v-10.8h53.9v79h-53.9v-10.8c2,0,3.6-1.6,3.6-3.6v-7.2c0-2-1.6-3.6-3.6-3.6v-28.7ZM682.6,99.2h3.6v7.2s-3.6,0-3.6,0v-7.2ZM699.9,110h30.2c2.6,0,4.7-2.1,4.6-4.7,0-.8-.2-1.6-.6-2.3l-15.1-25.9c-1.3-2.2-4.2-3-6.4-1.6-.7.4-1.2,1-1.6,1.6l-15.1,25.9c-1.3,2.3-.5,5.1,1.8,6.4.7.4,1.5.6,2.3.6h0ZM698.9,104.8l15.1-25.9c.3-.5,1-.7,1.5-.4.2,0,.3.2.4.4l15.1,25.9c.3.5.1,1.2-.4,1.5-.2,0-.4.1-.5.1h-30.2c-.6,0-1.1-.5-1.1-1.1,0-.2,0-.4.1-.5h0ZM709.8,95l3.6-5.7c.5-.8,1.7-1.1,2.5-.5.8.5,1.1,1.6.6,2.4l-1.9,3h3.9c1,0,1.8.8,1.8,1.8,0,.3,0,.6-.3.9l-3.6,5.7c-.5.8-1.7,1.1-2.5.5-.8-.5-1.1-1.6-.6-2.4l1.9-3h-3.9c-1,0-1.8-.8-1.8-1.8,0-.3,0-.6.3-.9h0Z"></path></g></g><g><text class="cls-7" transform="translate(666.8 378.1)"><tspan x="0" y="0">AV-Connect</tspan></text><g><rect class="cls-10" x="653.2" y="229" width="115" height="113" rx="20" ry="20"></rect><path class="cls-1" d="M747.8,279.6h-.6v-8.1c0-.7-.6-1.3-1.3-1.3h-6.3c-.7,0-1.3.6-1.2,1.3,0,0,0,0,0,0v.6h-16.9v-.6c0-.7-.5-1.3-1.2-1.3h-6.3c-.7,0-1.2.6-1.2,1.3v8.1h-.6c-.7,0-1.3.6-1.3,1.2v14.9c0,.7.6,1.3,1.3,1.3h.6v4.1c0,.7.6,1.2,1.2,1.2h2.9v13c0,3.4-2.8,6.2-6.2,6.2s-6.2-2.8-6.2-6.2v-36.1h2.9c.7,0,1.3-.6,1.3-1.2v-4h.6c.7,0,1.3-.6,1.3-1.3v-14.9c0-.7-.6-1.2-1.3-1.2h-.6v-8.1c0-.7-.6-1.3-1.3-1.3h-6.3c-.7,0-1.3.6-1.2,1.3,0,0,0,0,0,0v.6h-16.9v-.6c0-.7-.5-1.3-1.2-1.3,0,0,0,0,0,0h-6.3c-.7,0-1.2.6-1.2,1.3v8.1h-.6c-.7,0-1.3.6-1.3,1.2v14.9c0,.7.6,1.3,1.3,1.3h.6v4c0,.7.6,1.2,1.2,1.2h1.8v36.1c0,4.8,3.9,8.7,8.7,8.7h49.6c4.8,0,8.7-3.9,8.7-8.7v-13h1.8c.7,0,1.2-.5,1.3-1.2v-4.1h.6c.7,0,1.3-.6,1.3-1.3v-14.9c0-.7-.6-1.2-1.3-1.2ZM702.3,249.6h3.7v6.9h-3.7v-6.9ZM682.9,251.5h16.9v5h-16.9v-5ZM702.3,259v7.2h-22v-7.2h22ZM676.6,249.6h3.7v6.9h-3.7v-6.9ZM674.7,271.3v-12.3h3.1v8.5c0,.2,0,.5.2.6.2.4.6.6,1.1.6h24.5c.3,0,.6-.1.8-.3.3-.2.4-.6.4-.9v-8.5h3.1v12.3h-33.3ZM676.6,276.6v-2.8h29.5v2.8h-29.5ZM679.6,315.2v-36.1h2.5v36.1c0,2.3.9,4.5,2.5,6.1-2.9-.6-5-3.1-5-6.1ZM684.6,315.2v-36.1h2.5v36.1c0,2.3.9,4.5,2.5,6.1-2.9-.6-5-3.1-5-6.1ZM689.6,315.2v-36.1h2.5v36.1c0,2.3.9,4.5,2.5,6.1-2.9-.6-5-3.1-5-6.1ZM694.5,315.2v-36.1h2.5v36.1c0,2.3.9,4.5,2.5,6.1-2.9-.6-5-3.1-5-6.1ZM699.5,315.2v-36.1h2.5v36.1c0,2.3.9,4.5,2.5,6.1-2.9-.6-5-3.1-5-6.1ZM740.9,272.7h3.7v6.9h-3.7v-6.9ZM721.5,274.6h16.9v5h-16.9v-5ZM740.9,282.1v7.2h-22v-7.2h22ZM715.2,272.7h3.7v6.9h-3.7v-6.9ZM716.8,321.3c1.6-1.6,2.5-3.8,2.5-6.1v-13h2.5v13c0,3-2.1,5.5-5,6.1ZM721.8,321.3c1.6-1.6,2.5-3.8,2.5-6.1v-13h2.5v13c0,3-2.1,5.5-5,6.1ZM726.7,321.3c1.6-1.6,2.5-3.8,2.5-6.1v-13h2.5v13c0,3-2.1,5.5-5,6.1ZM731.7,321.3c1.6-1.6,2.5-3.8,2.5-6.1v-13h2.5v13c0,3-2.1,5.5-5,6.1ZM741.7,315.2c0,3-2.1,5.5-5,6.1,1.6-1.6,2.5-3.8,2.5-6.1v-13h2.5v13ZM744.7,299.7h-29.5v-2.8h29.5v2.8ZM746.6,294.4h-33.3v-12.3h3.1v8.5c0,.2,0,.4.2.6.2.4.6.6,1.1.6h24.5c.3,0,.6-.1.8-.3.3-.2.4-.6.4-.9v-8.5h3.1v12.3Z"></path></g></g><rect class="cls-5" x="656.3" y="630.3" width="115" height="113" rx="20" ry="20"></rect><text class="cls-7" transform="translate(484.1 578.8)"><tspan x="0" y="0">Inverter</tspan></text><rect class="cls-10" x="453.5" y="429.5" width="115" height="113" rx="20" ry="20"></rect><g><rect class="cls-10" x="452.7" y="229.4" width="115" height="113" rx="20" ry="20"></rect><text class="cls-7" transform="translate(471.1 378.1)"><tspan x="0" y="0">Heat Pump</tspan></text><g><path class="cls-1" d="M526.7,277.8h21.9c2.8,0,5.1-2.3,5.1-5.1v-4.7c0-2.8-2.3-5.1-5.1-5.1h-21.9c-2.8,0-5.1,2.3-5.1,5.1v4.7c0,2.8,2.3,5.1,5.1,5.1ZM526,268c0-.4.3-.7.7-.7h21.9c.4,0,.7.3.7.7v4.7c0,.4-.3.7-.7.7h-21.9c-.4,0-.7-.3-.7-.7v-4.7Z"></path><path class="cls-1" d="M523.8,288.3h27.6c1.2,0,2.2-1,2.2-2.2s-1-2.2-2.2-2.2h-27.6c-1.2,0-2.2,1-2.2,2.2s1,2.2,2.2,2.2Z"></path><path class="cls-1" d="M553.6,296.5c0-1.2-1-2.2-2.2-2.2h-27.6c-1.2,0-2.2,1-2.2,2.2s1,2.2,2.2,2.2h27.6c1.2,0,2.2-1,2.2-2.2Z"></path><path class="cls-1" d="M523.8,304.7c-1.2,0-2.2,1-2.2,2.2s1,2.2,2.2,2.2h9.3c1.2,0,2.2-1,2.2-2.2s-1-2.2-2.2-2.2h-9.3Z"></path><path class="cls-1" d="M542.4,309.1h9c1.2,0,2.2-1,2.2-2.2s-1-2.2-2.2-2.2h-9c-1.2,0-2.2,1-2.2,2.2s1,2.2,2.2,2.2Z"></path><path class="cls-1" d="M489.9,262.7s0,0,0,0,0,0,0,0c-12.7,0-23.1,10.5-23.1,23.2s1,7.8,2.9,11.2c0,.1.1.3.2.4,0,.1.1.2.2.3,4.1,6.8,11.5,11.3,19.9,11.3s15.8-4.5,19.9-11.2c0-.1.2-.3.2-.4,0-.1.1-.2.2-.3,1.9-3.3,2.9-7.2,2.9-11.3,0-12.8-10.4-23.2-23.2-23.2s0,0,0,0ZM506.4,295.1c0,.1-.2.3-.2.4-.5.8-1.3,1.4-2.2,1.6-1,.3-2,.1-2.9-.4l-3.2-1.8c-.8-.5-1.5-1.1-2.1-1.8l-.7-.9c1.5-1.2,2.5-2.9,2.8-4.9h1.1c1,.2,2,.5,2.9,1l3,1.7c1.2.7,1.9,2,1.9,3.3s-.1,1.2-.4,1.7ZM484.8,292.1l-.6.9c-.6.8-1.4,1.5-2.3,2.1l-3,1.7c-1.6.9-4,.4-5.1-1.2,0-.2-.2-.3-.3-.5-.4-.8-.5-1.8-.2-2.7.3-1,.9-1.8,1.8-2.3l3.2-1.8c.8-.5,1.7-.8,2.6-.9l1.2-.2c.3,1.6,1,3.1,2.1,4.2,0,0,.1.1.2.2,0,0,0,0,0,0,0,0,.2.2.2.2,0,0,0,0,0,0,0,0,.1.1.2.2ZM493.6,286.2s0,0,0,0c0,0,0,.1,0,.2,0,0,0,0,0,.1,0,0,0,0,0,.1-.2,1.1-1,2.1-2.1,2.5,0,0,0,0,0,0,0,0,0,0-.1,0,0,0-.1,0-.2,0-.4.1-.7.2-1.1.2s-.9,0-1.3-.2c0,0-.1,0-.2,0,0,0,0,0,0,0,0,0-.1,0-.2,0,0,0,0,0-.1,0,0,0,0,0,0,0,0,0-.1,0-.2-.1,0,0,0,0,0,0,0,0,0,0-.1,0,0,0,0,0,0,0,0,0,0,0-.1-.1,0,0,0,0,0,0,0,0,0,0,0,0,0,0,0-.1-.1-.2,0,0,0,0,0,0,0,0,0-.1-.1-.2,0,0,0,0,0,0-.3-.4-.4-.8-.5-1.2,0,0,0,0,0,0,0-.2,0-.3,0-.5,0,0,0,0,0,0,0,0,0-.2,0-.2,0,0,0,0,0,0,0,0,0,0,0-.1,0,0,0,0,0,0,0,0,0,0,0-.1,0,0,0,0,0,0,0,0,0-.1,0-.2,0,0,0,0,0,0,0,0,0-.1,0-.2,0,0,0,0,0,0,.2-.8.6-1.5,1.2-2,0,0,.1-.1.2-.2,0,0,0,0,0,0,0,0,.1,0,.2-.1,0,0,0,0,0,0,0,0,.1,0,.2,0,0,0,0,0,0,0,0,0,.1,0,.2,0,0,0,0,0,0,0,0,0,.2,0,.2,0,0,0,0,0,0,0,0,0,.2,0,.3,0,0,0,0,0,0,0,0,0,.2,0,.3,0,0,0,0,0,0,0,0,0,.2,0,.2,0,0,0,0,0,0,0s0,0,0,0c0,0,.2,0,.3,0,0,0,0,0,0,0,0,0,.2,0,.3,0,0,0,0,0,0,0,0,0,.2,0,.3,0,0,0,0,0,0,0,0,0,.2,0,.2,0,0,0,0,0,0,0,0,0,.1,0,.2,0,0,0,0,0,0,0,0,0,.1,0,.2.1,0,0,0,0,0,0,0,0,.1,0,.2.1,0,0,0,0,0,0,0,0,.1.1.2.2.6.5,1.1,1.3,1.2,2.1,0,0,0,.2,0,.3,0,0,0,0,0,0,0,0,0,.2,0,.3,0,0,0,0,0,0s0,0,0,0c0,0,0,.1,0,.2ZM493.7,274.7c0,.9-.2,1.8-.5,2.7l-.4,1.1c-.1,0-.3,0-.4-.1,0,0,0,0,0,0,0,0-.2,0-.3,0,0,0,0,0-.1,0,0,0-.2,0-.3,0,0,0,0,0-.1,0,0,0-.2,0-.3,0,0,0,0,0-.1,0,0,0-.2,0-.3,0,0,0,0,0-.1,0-.1,0-.2,0-.3,0,0,0,0,0,0,0-.1,0-.3,0-.4,0s-.3,0-.4,0c0,0,0,0,0,0-.1,0-.2,0-.3,0,0,0,0,0-.1,0,0,0-.2,0-.3,0,0,0,0,0-.1,0,0,0-.2,0-.2,0,0,0-.1,0-.2,0,0,0-.1,0-.2,0,0,0-.1,0-.2,0,0,0-.2,0-.2,0,0,0,0,0-.1,0,0,0-.2,0-.3,0,0,0,0,0,0,0,0,0,0,0,0,0l-.5-1c-.4-.9-.7-1.9-.7-3v-3.4c.3-2.5,1.4-3.7,3.9-3.9,2.1,0,3.7,1.8,3.7,3.8v3.7ZM481.9,268.9c-.1.6-.3,1.2-.3,1.8,0,0,0,.1,0,.2v3.5c0,1.7.4,3.3,1.1,4.8l.9,1.9c-.3.5-.6,1-.9,1.5l-2.4.3c-1.5.2-2.9.7-4.2,1.4l-3.2,1.8c-.6.3-1.2.8-1.6,1.2,0-.5,0-1,0-1.6,0-7.5,4.4-14,10.8-17ZM479.2,301.3c.7-.2,1.3-.4,1.9-.8l3-1.7c1.5-.8,2.7-2,3.7-3.3l1.1-1.6c.4,0,.7,0,1.1,0s.6,0,.8,0l1.5,1.9c.9,1.2,2,2.1,3.3,2.9l3.2,1.8c.6.4,1.2.6,1.9.8-3,2.1-6.8,3.4-10.7,3.4s-7.7-1.3-10.8-3.4ZM508.7,285.9c0,.5,0,1.1,0,1.6-.5-.5-1-.9-1.6-1.3l-3-1.7c-1.5-.8-3-1.3-4.7-1.5l-2-.2c-.3-.6-.6-1.2-1-1.7l.9-2.1c.6-1.4.8-2.8.8-4.3v-3.7c0-.7,0-1.4-.3-2.1,6.4,3,10.9,9.5,10.9,17.1Z"></path></g></g><g><path class="cls-1" d="M503.7,503.3h-4.5v-4.5c0-1.8-1.4-3.2-3.2-3.2s-3.2,1.4-3.2,3.2v4.5h-4.5c-1.8,0-3.2,1.4-3.2,3.2s1.4,3.2,3.2,3.2h4.5v4.5c0,1.8,1.4,3.2,3.2,3.2s3.2-1.4,3.2-3.2v-4.5h4.5c1.8,0,3.2-1.4,3.2-3.2s-1.4-3.2-3.2-3.2Z"></path><path class="cls-1" d="M533.6,503.3h-15.4c-1.8,0-3.2,1.4-3.2,3.2s1.4,3.2,3.2,3.2h15.4c1.8,0,3.2-1.4,3.2-3.2s-1.4-3.2-3.2-3.2Z"></path><path class="cls-1" d="M539.2,459.8h-56.5c-1.8,0-3.2,1.4-3.2,3.2v23.5c0,1.8,1.4,3.2,3.2,3.2h56.5c1.8,0,3.2-1.4,3.2-3.2v-23.5c0-1.8-1.4-3.2-3.2-3.2ZM485.9,466.2h21.8v17h-4.7l-6.8-6.8c-1.3-1.3-3.3-1.3-4.6,0-1.3,1.3-1.3,3.3,0,4.6l2.2,2.2h-7.9v-17ZM536,483.2h-7.9l2.2-2.2c1.3-1.3,1.3-3.3,0-4.6-1.3-1.3-3.3-1.3-4.6,0l-6.8,6.8h-4.7v-17h21.8v17Z"></path></g><g class="cls-6"><text class="cls-7" transform="translate(235.7 178.9)"><tspan x="0" y="0">Generator Stage V</tspan></text><g><rect class="cls-10" x="243.4" y="26" width="115" height="113" rx="20" ry="20"></rect><g><path class="cls-1" d="M320.4,74.9l-2.2,2.2c.7,1,1.1,2.2,1.1,3.4,0,3.3-2.6,5.9-5.9,5.9-3.3,0-5.9-2.6-5.9-5.9,0-3.3,2.6-5.9,5.9-5.9,1.3,0,2.5.4,3.5,1.1l2.2-2.2c-3.8-3.1-9.5-2.5-12.6,1.3-3.1,3.8-2.5,9.5,1.3,12.6,3.8,3.1,9.5,2.5,12.6-1.3,2.7-3.3,2.7-8,0-11.3Z"></path><circle class="cls-1" cx="313.5" cy="80.5" r="4"></circle><circle class="cls-1" cx="313.5" cy="63.2" r="1.5"></circle><circle class="cls-1" cx="303.6" cy="63.2" r="1.5"></circle><circle class="cls-1" cx="323.3" cy="63.2" r="1.5"></circle><circle class="cls-1" cx="329.5" cy="108.8" r="4"></circle><path class="cls-1" d="M329.5,96.8c-6.6,0-12,5.4-12,12s5.4,12,12,12,12-5.4,12-12c0-6.6-5.4-12-12-12ZM329.5,114.7c-3.2,0-5.9-2.6-5.9-5.9s2.6-5.9,5.9-5.9,5.9,2.6,5.9,5.9c0,3.2-2.6,5.8-5.9,5.9Z"></path><path class="cls-1" d="M325.8,52.5c0-1.4-1.1-2.5-2.5-2.5h-7.4c-1.4,0-2.5,1.1-2.5,2.5v.6h12.3v-.6Z"></path><path class="cls-1" d="M308.6,52.5c0-1.4-1.1-2.5-2.5-2.5h-2.5c-1.4,0-2.5,1.1-2.5,2.5v.6h7.4v-.6Z"></path><path class="cls-1" d="M339.1,76.8h-.6v12.3h.6c1.4,0,2.5-1.1,2.5-2.5v-7.4c0-1.4-1.1-2.5-2.5-2.5Z"></path><path class="cls-1" d="M339.1,62h-.6v7.4h.6c1.4,0,2.5-1.1,2.5-2.5v-2.5c0-1.4-1.1-2.5-2.5-2.5Z"></path><path class="cls-1" d="M336.6,52.5c0-1.4-1.1-2.5-2.5-2.5s-2.5,1.1-2.5,2.5v42.7c1.7.3,3.4.9,4.9,1.8v-44.5Z"></path><path class="cls-1" d="M315.7,107.3h-46.6c-.5,0-.9-.4-.9-.9v-58.8c0-1.4-1.1-2.5-2.5-2.5s-2.5,1.1-2.5,2.5v61c0,2,1.7,3.7,3.7,3.7h49.1c-.4-1.6-.5-3.3-.3-4.9Z"></path><path class="cls-1" d="M268.2,119.9c0,.5.4.9.9.9h3.9c.3,0,.6-.2.8-.5l3.6-6.3h-9.2v5.9Z"></path><path class="cls-1" d="M282.9,63.5c0-.1,0-.2,0-.3l3.3-8.6h-6.6l-5.4,14.2h6c.5,0,.9.4.9.9,0,0,0,.1,0,.2l-1.7,7.5,11.1-12.9h-6.7c-.5,0-.9-.4-.9-.9Z"></path><path class="cls-1" d="M295.3,83.3v-32c0-1.4-1.1-2.5-2.5-2.5h-22.8v37h22.8c1.4,0,2.5-1.1,2.5-2.5ZM277.2,81.5c-.3-.2-.4-.6-.3-.9l2.2-10h-6.2c-.5,0-.9-.4-.9-.9s0-.2,0-.3l6.2-16c.1-.4.5-.6.9-.6h8.6c.5,0,.9.4.9.9,0,.1,0,.2,0,.3l-3.3,8.6h7.4c.5,0,.9.4.9.9,0,.2,0,.4-.2.6l-14.8,17.2c-.3.4-.9.4-1.3,0Z"></path><path class="cls-1" d="M329.5,95c.1,0,.2,0,.3,0v-40.1h-32.7v28.3c0,2.4-1.9,4.3-4.3,4.3h-22.8v17.9h46c1.6-6.2,7.1-10.5,13.4-10.5ZM296.2,102.4h-22.2c-.5,0-.9-.4-.9-.9s.4-.9.9-.9h22.2c.5,0,.9.4.9.9s-.4.9-.9.9ZM296.2,97.4h-22.2c-.5,0-.9-.4-.9-.9s.4-.9.9-.9h22.2c.5,0,.9.4.9.9s-.4.9-.9.9ZM296.2,92.5h-22.2c-.5,0-.9-.4-.9-.9s.4-.9.9-.9h22.2c.5,0,.9.4.9.9s-.4.9-.9.9ZM323.3,59.8c1.9,0,3.4,1.5,3.4,3.4,0,1.9-1.5,3.4-3.4,3.4-1.9,0-3.4-1.5-3.4-3.4s1.5-3.4,3.4-3.4ZM313.5,59.8c1.9,0,3.4,1.5,3.4,3.4s-1.5,3.4-3.4,3.4-3.4-1.5-3.4-3.4c0-1.9,1.5-3.4,3.4-3.4ZM300.2,63.2c0-1.9,1.5-3.4,3.4-3.4s3.4,1.5,3.4,3.4-1.5,3.4-3.4,3.4c-1.9,0-3.4-1.5-3.4-3.4ZM313.5,91.3c-6,0-10.8-4.8-10.8-10.8s4.8-10.8,10.8-10.8,10.8,4.8,10.8,10.8c0,6-4.8,10.8-10.8,10.8Z"></path></g></g></g><text class="cls-9" transform="translate(476.8 780.6)"><tspan x="0" y="0">Structure</tspan></text><rect class="cls-10" x="451.6" y="630.6" width="115" height="113" rx="20" ry="20"></rect><g class="cls-6"><text class="cls-9" transform="translate(256.3 578.9)"><tspan x="0" y="0">Power Grid</tspan></text></g><rect class="cls-5" x="240" y="432" width="115" height="113" rx="20" ry="20"></rect><g id="Wrench_inside_gear" class="cls-6"><path class="cls-1" d="M752.1,695.1v-16.6h-7.8c-.7-2.6-1.7-5-3-7.4l5.5-5.5-11.8-11.8-5.5,5.5c-2.3-1.3-4.8-2.3-7.4-3v-7.8h-16.6v7.8c-2.6.7-5,1.7-7.4,3l-5.5-5.5-11.8,11.8,5.5,5.5c-1.3,2.3-2.3,4.8-3,7.4h-7.8v16.6h7.8c.4,1.5.9,2.9,1.5,4.3l9.2-9.3c-1.8-10.9,5.5-21.2,16.4-23,7.2-1.2,14.5,1.6,19.1,7.4,11.1,14.2-1.1,35.1-19,32l-9.4,9.3c1.4.6,2.9,1.1,4.3,1.5v7.8h16.6v-7.8c2.6-.7,5-1.7,7.4-3l5.5,5.5,11.8-11.8-5.5-5.5c1.3-2.3,2.3-4.8,3-7.4h7.8Z"></path><path class="cls-1" d="M725.3,682.4l-7.4,7.4-4.7-2.4-2.4-4.7,7.4-7.4c-6.1-2.1-12.7,1-14.9,7.1-.9,2.5-.9,5.2,0,7.7l-24.5,25c-1.7,2-1.4,5,.6,6.7,1.8,1.5,4.3,1.5,6.1,0l25-24.5c6.1,2.1,12.7-1.1,14.8-7.2.9-2.5.9-5.2,0-7.7Z"></path></g><g><path class="cls-1" d="M527.9,717.6c-.3,0-.7,0-.9.3l-3.9,2.3c-.4.2-.7.7-.9,1.1s0,1,.2,1.4c.3.6.9.9,1.6.9h0c.3,0,.6,0,.9-.3l3.9-2.3c.4-.2.7-.7.9-1.1.1-.5,0-1-.2-1.4-.3-.6-.9-.9-1.6-.9Z"></path><path class="cls-1" d="M538.5,688.6c0-.4-.3-1.2-.9-1.6l-8.1-4.7v-33.9c0-1-.8-1.9-1.9-1.9s-1.9.8-1.9,1.9v7.1l-14.8-8.5v-9.5c0-1-.8-1.9-1.9-1.9s-1.9.8-1.9,1.9v9.5l-14.7,8.5v-6.8c0-1-.8-1.9-1.9-1.9s-1.9.8-1.9,1.9v33.5l-8.1,4.7c-.5.3-.9,1.1-.9,1.6v25.9c0,.7.3,1.3.8,1.6l27.6,15.9c.3.2.6.2.9.2s.6,0,.9-.2c5-2.9,9.9-5.7,10-5.8l.6-.3h0c.1-.3.3-.6.3-.8.1-.5,0-1-.2-1.4-.3-.6-.9-.9-1.6-.9s-.7,0-.9.3l-7.2,4.2v-21.6c0,0,23.7-13.7,23.7-13.7v21.6c0,0-3.5,2-3.5,2-.4.2-.7.7-.9,1.1-.1.5,0,1,.2,1.4.3.6.9.9,1.6.9s.6,0,.9-.3l4.3-2.5c.6-.3.9-.9.9-1.6v-2.7c0-5.8,0-20.2,0-22.8h0s0-.4,0-.4ZM488.8,686.5v2.6c0,1,.8,1.9,1.9,1.9s1.9-.8,1.9-1.9v-4.7l7.8-4.5,6.9,4v16.2c0,1,.8,1.9,1.9,1.9s1.9-.8,1.9-1.9v-16.1l7-4.1,7.8,4.5v4.3c0,1,.8,1.9,1.9,1.9s1.9-.8,1.9-1.9v-2.2l3.5,2-23.7,13.8-23.8-13.8,3.5-2ZM507.2,675.9v3.7l-3.2-1.8,3.2-1.9ZM492.5,669v-7l6,3.5-6,3.5ZM507.2,670.4v1.1l-6.9,4-5.9-3.4,7.9-4.6,4.9,2.9ZM507.2,664.7v1.4l-1.2-.7,1.2-.7ZM494.4,658.8l12.8-7.4v9.1l-4.9,2.9-7.8-4.5ZM492.5,680.1v-4.7l4.1,2.4-4.1,2.4ZM523.9,672.2l-6,3.5-7-4v-1l5.1-2.9,7.9,4.5ZM525.7,675.4v4.7l-4.1-2.4,4.1-2.4ZM519.7,665.5l6-3.5v6.9l-6-3.5ZM510.9,660.4v-9.1l12.9,7.5-7.9,4.6-5.1-2.9ZM510.9,666.3v-1.6l1.4.8-1.4.8ZM510.9,679.7v-3.8l3.3,1.9-3.3,1.9ZM483.4,713.4v-21.6c0,0,23.9,13.8,23.9,13.8v21.6c0,0-23.9-13.8-23.9-13.8Z"></path></g><path class="cls-3" d="M319.8,448.1h-17.9s0,0,0,0h-30.3c-7.8,0-14.2,6.4-14.2,14.3v47.9c0,7.9,6.4,14.3,14.3,14.3h17.9s0,0,0,0h30.3c7.8,0,14.2-6.4,14.2-14.3v-47.9c0-7.9-6.4-14.3-14.3-14.3ZM326.2,455.3c1.8,1.8,3,4.3,3,7v9.6h-19.2v-19.2h9.7c2.5,0,4.8,1,6.5,2.6ZM285.9,452.6h15.2c.2,0,.4.1.6.1h3.5v19.2h-19.3v-19.3ZM265.1,517.2c-1.8-1.8-3-4.3-3-7v-9.6h19.2v19.2h-9.7c-2.5,0-4.8-1-6.5-2.6ZM261.9,462.3c0-5.4,4.4-9.7,9.7-9.7h9.6v19.3h-19.4v-9.6ZM261.9,476.6h19.4v19.3h-19.4v-19.3ZM305.4,520h-15.2c-.2,0-.4-.1-.6-.1h-3.5v-19.2h19.3v19.3ZM286.1,496v-4.1c0-.3,0-.6-.2-.8v-14.5h19.3v4.1c0,.3,0,.6.2.8v14.5h-19.3ZM329.4,510.3c0,5.4-4.4,9.7-9.7,9.7h-9.6v-19.3h19.4v9.6ZM329.4,496h-19.4v-19.3h19.4v19.3Z"></path></g></g></svg>